<?xml version="1.0" encoding="UTF-8"?>
<svg version="1.1" viewBox="0 0 2048 2048" width="512" height="512" xmlns="http://www.w3.org/2000/svg">
<path transform="translate(458,30)" d="m0 0h1095l20 1 10 5 6 5 5 8 2 6 1 21v285l-2 13-8 20-10 20-14 23-12 17-12 16-13 16-10 16-8 16-8 22-5 23-2 19v15l3 27 10 61 22 135 2 14v57l-3 172-1 65v56l14 28 15 33 13 30 16 41 15 42 12 36 10 33 10 36 13 52 8 37 9 48 6 36 6 45 5 49 4 64v43l-3 7-9 10-8 7-13 9-19 12-24 14-32 16-31 14-34 13-38 13-37 11-41 10-48 10-48 8-67 8-49 4-37 2-29 1h-51l-10-5-7-6-4-6-3-9-9-52-19-114h-1l-3 22-9 53-12 72-4 22-5 10-4 5-7 5-9 3h-51l-33-1-59-4-51-5-44-6-47-8-43-9-40-10-41-12-38-13-28-11-23-10-26-12-22-12-22-13-15-10-19-14-9-9-5-10-1-4v-30l4-65 4-44 6-46 7-46 8-43 12-54 10-40 10-36 12-39 12-36 11-31 17-44 12-28 13-29 11-23 8-16v-33l-2-88v-25l-1-44-1-2v-47l-1-51v-59l11-66 24-147 2-16v-29l-2-17-5-21-6-17-8-16-8-14-12-16-14-18-13-18-12-20-10-18-8-18-5-15-1-36v-120l-1-56 1-77 1-24 4-8 9-10 5-4 5-2z" fill="#484E67"/>
<path transform="translate(1364,1301)" d="m0 0h13l10 4 9 8 5 10 10 26 13 35 10 28 7 19 20 59 14 44 12 40 11 42 11 44 8 39 4 23 5 39 2 26 2 49v24l-14 8-19 10-27 13-35 14-30 10-25 7-31 8-42 8-50 7h-4l-1-6-1-19-1-35v-57l3-57 4-44 6-48 6-38 7-38 22-98 13-56 13-57 15-65 4-10 6-8 9-6z" fill="#9DA7C9"/>
<path transform="translate(647,1301)" d="m0 0h12l11 4 7 6 5 8 4 13 10 44 17 74 12 52 14 61 10 46 6 33 7 45 4 32 3 31 4 59 1 62-1 46-2 27-3 1-43-6-45-8-44-11-38-12-27-10-30-13-32-16-15-9v-28l3-62 4-37 8-46 12-54 12-45 12-42 15-47 16-49 17-48 11-30 11-29 10-25 8-10 8-5z" fill="#9DA7C9"/>
<path transform="translate(865,790)" d="m0 0h108l6 4 5 5 3 4 1 3v544l-3 7-7 8-6 3h-10l-6-4-8-9-8-15-8-16-13-25-10-19-15-32-12-29-11-29-15-46-9-35-9-43-6-39-4-36-2-29-1-47v-40l1-48 4-10 6-10 9-9 12-6z" fill="#9DA7C9"/>
<path transform="translate(1051,790)" d="m0 0h105l11 2 11 6 10 9 7 11 3 10v123l-2 36-4 39-6 38-7 35-11 44-8 25-9 27-8 21-13 31-9 20-18 36-10 19-8 16-9 16-6 8-6 5-3 1h-10l-9-6-5-8-1-3v-447l-1-25v-69l4-10 8-8z" fill="#9DA7C9"/>
<path transform="translate(795,1358)" d="m0 0 7 1 9 10 13 18 10 14 16 23 12 17 8 11 11 16 12 17 14 20 13 18 12 18 7 12 6 15 4 13 3 19v20l-7 99-5 66-5 73-2 34-2 22-1 18-3 16-6 9-8 5-10 3-7-1-10-5-7-8-6-14-17-54-20-64-10-33-7-24-3-19-6-64-6-61-6-65-5-52-3-35-6-60-3-32 1-9 4-4z" fill="#F6004F"/>
<path transform="translate(1222,1359)" d="m0 0h12l6 4 2 7-1 21-8 80-12 127-6 62-7 76-5 30-12 40-6 19-18 58-10 31-10 32-6 10-8 6-5 2h-11l-10-4-5-4-6-10-2-10-6-81-7-96-8-112-1-18v-38l4-17 6-15 9-17 14-21 20-28 12-17 14-20 11-16 12-17 20-28 13-19 11-14z" fill="#F6004F"/>
<path transform="translate(857,491)" d="m0 0h111l9 5 7 7 4 8 1 17-1 211-3 8-9 10-9 4h-112l-13-5-9-7-7-8-6-12-1-5-1-23v-167l2-11 6-12 9-10 9-6z" fill="#9DA7C9"/>
<path transform="translate(1075,490)" d="m0 0 87 1 12 2 14 7 8 8 5 8 4 12v195l-4 13-8 11-10 8-8 4-8 2h-111l-8-4-7-6-4-8-1-3-1-180v-45l4-10 9-10 8-4z" fill="#9CA6C8"/>
<path transform="translate(1419,760)" d="m0 0h11l6 4 4 6 2 18 4 52 3 38v21l-3 23-5 19-6 16-11 23-8 12-9 12-9 10-9 11-13 15-36 42-13 15-11 13-13 15-11 13-12 13-7 6-3 1h-10l-8-5-4-5-2-13 3-61 3-25 5-28 6-25 12-37 11-26 8-17 12-22 12-19 12-17 8-11 13-16 13-14 14-16h2l2-4 13-13 7-8 15-15z" fill="#9DA7C9"/>
<path transform="translate(599,759)" d="m0 0 7 2 12 11 16 17 11 12 8 8 7 8 12 13 9 11 14 18 14 21 6 10 10 17 8 16 9 19 9 24 7 21 8 30 5 26 4 33 3 54v9l-3 9-6 7-6 3-7 1-8-4-13-13-9-11-9-10-9-11-9-10-9-11-10-11-9-11-10-11-9-11-9-10-9-11-9-10-9-11-13-18-9-16-8-18-6-20-4-24-1-9v-23l5-60 3-41 3-7 5-5z" fill="#9DA7C9"/>
<path transform="translate(1058,98)" d="m0 0h246l12 2 10 5 6 7 4 8 2 11-1 17-5 20-7 19-8 16-10 18-8 12-8 11-9 11-11 11-11 7-7 1-19-9-28-12-29-11-33-11-48-11-38-9-11-4-8-7-4-8v-74l4-8 5-6 10-5z" fill="#9DA7C9"/>
<path transform="translate(720,98)" d="m0 0h244l8 2 8 5 6 9 1 4v70l-2 8-6 8-8 5-23 6-27 6-38 9-27 8-33 12-28 12-27 12-7-1-11-8-7-7-9-11-10-13-13-22-11-22-9-25-4-16-1-7v-13l3-12 6-9 6-5 10-4z" fill="#9DA7C9"/>
<path transform="translate(957,257)" d="m0 0h16l8 6 6 8 1 4v160l-3 8-7 8-6 3-15 1-133-1-9-2-10-6-5-4-9-13-14-25-5-13-1-5v-20l4-13 7-13 8-9 11-9 19-14 20-12 23-12 24-10 24-8 27-6z" fill="#9DA7C9"/>
<path transform="translate(1051,257)" d="m0 0h14l25 4 21 5 26 8 23 10 22 11 24 15 19 14 10 9 8 9 7 14 3 11v18l-4 14-12 23-9 14-10 11-12 6-4 1h-149l-7-3-8-9-2-5v-163l5-9 8-7z" fill="#9DA7C9"/>
<path transform="translate(1448,999)" d="m0 0h6l5 3 1 7v34l1 84 5 27 9 25 12 31 7 18 6 16 14 37 11 29 26 68 8 21 11 30 8 26 6 23 5 23 3 22 2 24v21l-2 12-4 4-2 1h-7l-5-5-15-42-13-36-16-41-16-40-15-37-17-40-36-84-18-40-17-39-13-28-11-26-3-12v-14l3-12 8-15 13-19 16-23 13-19 8-11z" fill="#9DA7C9"/>
<path transform="translate(582,998)" d="m0 0 6 2 14 19 11 16 14 20 8 12 10 16 4 9 2 10v13l-4 15-9 20-19 42-15 33-13 30-10 24-7 15-15 35-26 62-15 37-12 30-12 31-11 29-9 25-10 29-4 10-4 3h-8l-5-4-1-3-1-15v-17l2-25 4-25 5-23 7-26 10-30 15-40 12-31 14-36 7-19 40-105 11-30 5-21 1-11 1-120 5-5z" fill="#9DA7C9"/>
<path transform="translate(1408,369)" d="m0 0h6l5 4 1 2v128l-3 19-6 21-8 16-8 14-13 16-12 12-8 7-10 9-11 9-14 12-11 9-6 4-5-1-4-3-1-43v-51l2-24 5-23 6-17 8-16 7-12 9-12 9-11 9-10 7-8 9-10 7-8 9-10 7-8z" fill="#9DA7C9"/>
<path transform="translate(609,369)" d="m0 0h6l9 8 7 8 11 13 14 15 9 11 13 14 9 11 11 15 11 21 6 15 5 18 3 21 1 47v20l-1 40-6 5-5-1-10-8-14-12-11-9-10-9-8-7-13-12-7-7-12-16-9-16-6-15-5-17-3-24v-122l2-5z" fill="#9DA7C9"/>
<path transform="translate(1403,617)" d="m0 0 8 2 5 3 3 4 1 4v64l-3 19-5 15-8 15-8 11-11 13-8 8-7 8-13 13-7 8-8 8-7 8-11 11-7 3-7-1-6-4-3-4-1-6v-58l1-21 4-18 5-13 7-12 7-9 9-10 16-15 15-14 8-7 15-14 11-9z" fill="#9DA7C9"/>
<path transform="translate(618,617)" d="m0 0 6 1 11 9 13 12 8 7 16 15 8 7 22 22 9 14 5 10 5 15 2 10 1 15-1 70-6 7-8 3-6-1-8-7-10-10-7-8-14-14-7-8-16-17-11-12-11-15-7-14-6-19-2-15v-65l4-7 6-4z" fill="#9DA7C9"/>
<path transform="translate(779,1360)" d="m0 0h5l-2 8 1 17 4 41 4 40 4 44 7 76 7 73 9 93 5 21 10 33 23 73 17 55 6 15 6 8 8 5 10 3 1 2h-7l-8-3-4-2-3-3-4-1v-3l-4-2-6-9-5-13-2-8-2-5-2-8-6-19-4-13-5-18-3-7-3-10-7-24-3-10-3-7-2-10-2-3-2-10-2-4-2-9-2-5-3-23-3-31-3-33-2-21-2-23-2-20-3-36-2-14-2-29-2-14-2-32-2-12-1-22-3-15-1-16v-13l-3-11-1-15v-10z" fill="#3F526A"/>
<path transform="translate(1070,1583)" d="m0 0h3v46l5 76 6 80 5 70 6 81 3 12 5 8 8 5 6 2v2l5 1-3 1-8-1-6-4v-2l-7-2-2-6-5-2-4-11-3-33-1-6-1-31-2-17-1-6-2-43-2-10-1-32-1-14-1-5-2-40-1-14-2-11-1-71 1-16z" fill="#3F526A"/>
<path transform="translate(1210,1364)" d="m0 0h3l1 4-13 18-7 10-12 17-5 2 2-5 8-12 8-11 1-2h2l2-5 6-10 1-3z" fill="#40516A"/>
<path transform="translate(1128,1483)" d="m0 0 2 4-11 16-8 11-12 17-2 3h-3l1-4 1-3h2l2-4 9-14 6-8 8-10 3-5z" fill="#415169"/>
<path transform="translate(1175,1416)" d="m0 0 2 1-1 5-9 12-5 5h-2l2-5 6-9h2l2-5z" fill="#415169"/>
<path transform="translate(1187,1403)" d="m0 0v3l-6 8-4 1 2-5 5-6z" fill="#415169"/>
<path transform="translate(483 1e3)" d="m0 0v3l-4 2z" fill="#9DA7C9"/>
<path transform="translate(1606,251)" d="m0 0 4 4-4-2z" fill="#9DA7C9"/>
<path transform="translate(486,999)" d="m0 0 2 1-4 2z" fill="#9DA7C9"/>
<path transform="translate(1611,256)" d="m0 0 2 2h-2z" fill="#9DA7C9"/>
<path transform="translate(492,993)" d="m0 0 2 1z" fill="#9DA7C9"/>
<path transform="translate(478,1007)" d="m0 0" fill="#9DA7C9"/>
<path transform="translate(491,994)" d="m0 0" fill="#9DA7C9"/>
<path transform="translate(492,946)" d="m0 0" fill="#9DA7C9"/>
<path transform="translate(491,945)" d="m0 0" fill="#9DA7C9"/>
<path transform="translate(1619,264)" d="m0 0" fill="#9DA7C9"/>
<path transform="translate(1617,262)" d="m0 0" fill="#9DA7C9"/>
<path transform="translate(1615,260)" d="m0 0" fill="#9DA7C9"/>
<path transform="translate(1614,259)" d="m0 0" fill="#9DA7C9"/>
<path transform="translate(1613,258)" d="m0 0" fill="#9DA7C9"/>
<path transform="translate(1610,255)" d="m0 0" fill="#9DA7C9"/>
<path transform="translate(1605,250)" d="m0 0" fill="#9DA7C9"/>
<path transform="translate(1604,249)" d="m0 0" fill="#9DA7C9"/>
<path transform="translate(1603,248)" d="m0 0" fill="#9DA7C9"/>
<path transform="translate(1601,246)" d="m0 0" fill="#9DA7C9"/>
<path transform="translate(1618,208)" d="m0 0" fill="#9DA7C9"/>
<path transform="translate(423,200)" d="m0 0" fill="#9DA7C9"/>
</svg>
