<?xml version="1.0" encoding="UTF-8"?>
<svg version="1.1" viewBox="0 0 2048 2048" width="512" height="512" xmlns="http://www.w3.org/2000/svg">
<path transform="translate(1017,20)" d="m0 0 33 1 31 3 43 7 69 13 12 3 5 5 3 9 24 156 3 21 6 2 85 51 17 10 28 17 14 8 28 17 24 14 25 15 28 17 26 15 8 4 21 8 25 11 21 10 20 11 23 14 19 13 16 12 13 11 8 7 10 9 15 15 9 11 13 16 10 15 10 17 11 23 7 19 9 29 8 36 4 22 4 31 3 40v48l-2 36-4 35-5 29 1 5 11 12 12 14 13 17 12 17 14 22 11 19 14 26 13 29 11 28 10 31 8 31 5 24 6 38 3 34 1 70-1 83-4 6-9 10-8 7-23 23-8 7-19 19-8 7-20 20-8 7-26 26-8 7-21 21-8 7-17 17-7 6-1 2h-2v2l-8 7-7 7-8 6-5 2-9-1-7-7-9-15-13-25-14-32-11-30-10-34-8-37-5-35-2-25v-45l-9-12-11-14-14-18-13-17-14-18-10-13-1-2-3-1-2 6-8 14-11 17-10 14-11 14-13 17-10 17-10 24-6 21-4 30v16l3 27 14 88 18 108v44l-2 65-1 18-2 58-3 7-11 8-32 17-29 15-58 27-38 16-39 15-53 18-42 12-32 8-34 7-41 6-31 3-14 1h-41l-38-3-35-5-37-7-52-13-51-16-36-13-38-15-41-18-40-19-28-14-22-12-21-12-8-6-2-4-1-7-3-80-2-51v-48l7-43 9-54 7-44 9-55 3-25v-23l-3-23-6-23-8-21-10-18-12-17-14-17-14-20-12-19-6-11v-2h-3l-2 5-11 14-14 18-13 17-14 18-11 14-6 8-1 49-2 26-5 32-6 29-10 36-8 23-12 29-14 30-11 20-6 8-5 4-8 1-7-3-11-9-11-11-8-7-11-11-8-7-8-8-8-7-10-10-8-7-7-7-8-7-10-10-8-7-8-8-8-7-9-9-8-7-9-9-8-7-7-7-8-7-8-8-8-7-10-10-8-7-8-8-2-4-1-164 2-33 3-26 6-36 6-26 7-24 11-30 12-27 11-21 12-20 16-23 13-16 9-11 26-26 10-8 1-3-4-25-3-36-1-23v-48l2-33 5-44 7-40 8-33 11-35 8-20 8-16 9-16 11-16 10-13 12-14 8-8 6-7 8-7 14-13 13-10 12-9 27-18 24-14 27-14 24-11 33-13 21-12 28-17 24-14 20-12 32-19 25-15 28-17 26-15 28-17 22-13 30-18 13-82 5-34 10-65 4-6 6-4 60-12 50-9 36-4z" fill="#484E67"/>
<path transform="translate(978,84)" d="m0 0h8l9 4 6 7 3 8v172l-3 25-6 22-7 17-9 16-10 14-12 13-22 22-6 5 2 4 14 12 11 9 16 16 11 15 9 17 8 24 3 17 1 11v173 3 503l-3 8-8 5-5-1-5-5-9-11-8-12-13-19-24-34-10-15-12-17-13-19-16-23-8-12-12-17-11-16-14-20-8-12-16-23-11-16-15-22-10-14-8-15-4-12-2-10v-12l3-28 1-16v-45l-2-30-4-36-6-34-9-38-9-27-11-26-13-25-8-13-12-17-9-11-9-10-16-16-16-12-15-10-24-13-14-7-7-8-2-5v-13l4-9 9-7 54-29 23-12 12-7 12-6 22-12 66-35 31-16 15-9 9-10 28-40 10-14 11-15 11-16 12-16 8-12 14-19 9-13 13-18 12-17 8-9z" fill="#9CA7C8"/>
<path transform="translate(1054,84)" d="m0 0h9l8 4 9 10 13 18 12 17 20 28 13 18 24 34 8 11 10 14 14 20 13 18 7 9 9 6 24 13 42 22 22 12 34 18 22 12 34 18 22 12 25 13 10 7 6 9 1 3v10l-4 10-8 7-25 12-19 11-16 12-14 12-14 14-9 11-11 15-10 15-13 24-9 20-11 30-5 17-8 37-5 31-4 38-1 15v56l3 41v12l-2 12-4 12-8 14-13 19-15 22-12 17-9 13-15 22-32 46-26 38-9 13-11 16-7 10-13 19-14 20-13 19-12 17-12 15-2 1h-7l-7-5-2-7v-675l1-16 4-19 7-20 9-17 10-14 11-12 8-8 11-9 13-11 3-1-19-19-8-7-7-7-9-11-8-11-8-14-8-18-6-20-3-19v-185l4-8 7-6z" fill="#9CA7C8"/>
<path transform="translate(711,929)" d="m0 0h10l12 3 8 5 10 9 13 19 11 15 11 16 19 28 13 19 6 8 10 14 16 23 12 17 16 23 7 10 13 19 8 11 11 16 12 17 7 10 10 15 6 12 2 7v11l-4 12-8 11-16 17-7 8-9 10-9 11-7 7-7 8-9 10-9 11-14 15-9 11-15 16-7 8-12 14-10 11-7 8-11 12-7 8-12 14-11 12-9 11-7 7-7 8-9 10-9 11-14 15-6 4-5-2-3-5-7-30-8-25-9-21-19-38-13-22-15-24-16-26-14-23-8-13-12-21-13-24-15-30-8-19-9-24-6-19-8-32-5-30-4-33-3-35-1-19v-23l3-9 5-9 8-8 11-5 30-8 36-10 26-8 28-9 27-9 25-9 14-4z" fill="#F5004E"/>
<path transform="translate(1320,929)" d="m0 0 15 1 19 6 72 24 27 8 36 10 33 9 12 6 9 10 4 10 1 5 1 17-3 45-4 40-6 37-6 24-8 26-12 32-11 24-8 17-12 22-13 23-15 25-16 26-12 19-11 18-14 24-12 22-10 21-7 18-8 28-5 24-5 6-6-1-8-8-7-8-11-12-9-10-12-14-7-7-7-8-10-11-9-11-9-9-7-8-11-12-7-8-9-10-10-11-7-8-10-11-7-8-14-15-9-11-15-16-18-20-7-8-11-12-9-10-10-11-6-12-2-8 1-13 4-10 16-24 17-25 12-17 8-12 10-14 14-21 12-17 8-12 8-11 11-16 25-37 12-17 13-19 19-28 12-17 7-8 5-4 8-4z" fill="#F5004E"/>
<path transform="translate(980,1286)" d="m0 0h7l8 4 5 4 4 8v641l-3 10-5 6-10 4-8-1-6-4-11-9-13-11-14-12-10-9-11-9-13-11-19-14-21-13-21-10-27-9-22-5-15-2-31-2-10-3-10-6-8-7-5-8-4-12-3-40-4-74-4-63v-14l4-17 6-11 11-13 10-10 7-8 18-20 2-3h2l2-4 12-13 9-11 9-9 2-3h2l2-4 12-13 7-8 11-12 7-8 2-3h2l2-4 12-13 7-8 11-12 9-11 8-8 7-8 12-13 7-8 10-11 7-8 2-3h2l2-4 11-12 9-10 7-8 12-13z" fill="#9CA7C8"/>
<path transform="translate(1054,1286)" d="m0 0 9 1 8 6 9 9 9 11 13 14 7 8 10 11 7 8 18 20 11 12 7 8 11 12 7 8 10 11 7 8 11 12 9 10 10 11 9 11 15 16 18 20 12 14 7 7 9 11 15 16 14 15 9 10 8 16 2 12v19l-3 47-2 40-2 32-3 50-3 12-7 12-10 9-10 5-7 2-9 1h-11l-31 4-22 5-18 6-26 12-21 13-17 13-13 11-11 9-11 10-11 9-10 9-14 11-8 6-5 2h-7l-8-4-5-6-2-5-1-18v-623l2-9 7-8z" fill="#9CA7C8"/>
<path transform="translate(489,450)" d="m0 0h24l15 3 20 7 25 11 16 8 14 8 12 8 14 11 12 11 1 3h2l9 11 11 16 9 17v9l-6 7-16 8-16 6-35 12-33 13-24 12-17 11-16 13-15 15-11 14-9 16-5 11-7 23-6 29-6 16-8 12-9 10-11 10-13 10-26 22-14 12-12 11-10 9-8 7-14 12-9 8-9 5-4 1h-7l-9-3-5-4-5-8-5-20-6-36-4-40v-49l4-40 6-30 8-27 8-22 11-24 10-18 8-12 10-14 8-10 12-13 11-12 12-11 13-11 8-6 14-10 19-12 22-12 13-6 15-5z" fill="#9DA8C9"/>
<path transform="translate(1529,450)" d="m0 0h24l15 3 13 5 17 8 24 14 17 11 16 12 16 13 15 14 8 8 9 11 11 13 14 20 9 15 14 29 10 27 7 23 5 25 3 20 2 23 1 25v13l-2 32-4 32-4 22-5 22-5 10-8 6-6 2h-8l-10-4-11-10-11-9-16-15-14-12-12-11-11-9-14-12-14-11-11-9-9-8-9-12-7-14-5-19-5-25-5-17-4-10-10-17-10-13-12-13-14-11-10-7-15-9-19-10-32-13-44-15-20-8-11-7-4-5v-8l8-16 7-11 11-14 21-21 13-10 16-10 16-8 21-10 15-6 21-7z" fill="#9DA8C9"/>
<path transform="translate(1351,610)" d="m0 0h16l41 14 28 10 24 9 16 8 14 9 14 11 7 6v2h2v2h2l7 8 9 12 9 15 8 17 6 19 3 14 2 21v161l-4 8-5 5-8 5-2 1h-10l-38-12-38-13-33-11-37-13-21-7-23-8-11-7-7-8-5-12-4-28-3-42v-34l3-44 5-37 8-40 5-19 5-10 6-7z" fill="#F5004E"/>
<path transform="translate(680,609)" d="m0 0 11 1 8 5 7 8 5 12 9 41 5 31 4 40 1 26v28l-1 29-3 34-3 14-6 12-4 5-9 6-14 6-25 9-78 26-41 14-28 9-7 2h-11l-9-5-7-8-3-10v-136l1-30 3-19 5-18 8-18 6-12 8-12 10-13 9-10 14-12 15-10 15-8 20-8 26-9 44-16z" fill="#F5004E"/>
<path transform="translate(447,845)" d="m0 0 8 1 6 5 1 2v20l-3 53-1 32v64l3 40 6 42 1 11v12l-3 22-7 24-8 20-13 27-10 17-12 19-13 19-22 28-12 14-11 12-12 13-10 9-12 11-14 11-9 6-5 2-9-1-8-6-4-7 1-10 14-37 13-35 8-26 8-34 4-28 2-26 2-47 3-29 5-28 6-25 8-27 9-26 9-21 12-26 13-23 12-20 14-20 9-12 8-10 9-10z" fill="#9DA8C9"/>
<path transform="translate(1589,845)" d="m0 0h6l8 7 9 10 8 11 10 14 10 15 15 25 10 19 11 23 11 28 11 33 7 27 6 30 4 31 3 65 4 34 5 25 5 20 8 26 12 31 14 36 1 4v8l-5 8-5 4-5 2h-7l-9-5-14-11-12-11-8-7-22-22-7-8-12-14-7-9-8-10-13-18-15-23-15-26-11-22-10-26-7-27-1-6v-29l5-32 4-41 1-38v-15l-2-61-3-49v-17l6-7z" fill="#9DA8C9"/>
<path transform="translate(1700,914)" d="m0 0h7l16 10 13 10 11 9 15 13 11 11 8 7 14 15 9 10 11 14 12 16 8 12 8 13 10 17 8 16 10 21 10 26 7 21 9 36 7 41 2 23 1 21v27l-1 24-2 18-4 10-8 7-3 1h-13l-9-6-7-7-11-14-10-13-12-19-11-23-8-27-5-15-8-16-6-10-14-19-10-16-8-17-6-19-4-21-4-26-8-36-10-33-11-32-14-35-11-26v-9l3-5z" fill="#9DA8C9"/>
<path transform="translate(333,914)" d="m0 0h8l8 5 3 3 1 8-8 21-7 15-17 45-11 35-8 30-6 32-4 26-5 19-8 20-8 14-12 17-6 8-8 13-7 15-5 14-5 18-7 19-10 19-8 12-16 21-11 12-7 6-4 2h-13l-8-5-4-4-3-11-2-22v-58l3-33 4-26 6-29 9-31 9-25 9-21 15-30 13-22 11-16 10-14 11-13 9-11 12-13 25-25 11-9 14-12 11-8 14-10z" fill="#9DA8C9"/>
<path transform="translate(1419,1465)" d="m0 0h2l4 21 11 65 9 52 6 35 5 29 3 29v31l-2 28-5 41-4 24-4 10-6 7-10 5h-18l-30-4-9-4-8-7-3-6v-15l4-36 6-47 9-60 9-52 12-62 9-43 7-31z" fill="#9DA8C9"/>
<path transform="translate(621,1463)" d="m0 0 2 3 12 53 13 63 12 67 10 64 8 62 3 29v16l-4 8-8 7-8 3-20 3-12 1h-16l-10-5-6-7-4-11-7-49-3-29v-53l4-32 9-50 8-47 4-24 9-53 3-18z" fill="#9DA8C9"/>
<path transform="translate(1368,603)" d="m0 0 8 1 12 4 19 8 16 6 9 3 6 3 18 5 13 5 2 2 7 3 9 6 11 9 1 4-3 1-4-2v-2l-4-2-9-5-17-9-19-7-16-6-27-9-7-3-11-2-15-5h-16l-10 6-6 8-4 10-6 26-6 30-5 37-3 44v34l3 42 4 28 5 12 7 8 10 6 26 9 37 13 33 11 38 13 43 14 13 4v2h2v2l-14-1-17-4-35-11-8-3-9-3-13-4-8-3-12-4-4-2-8-2-13-5-20-7-24-9-12-6-4-3-5-2-5-5-6-7-4-7-4-18-4-36-1-31v-28l1-24 3-20 1-13 3-16 1-10 3-9 1-12 3-5 1-12 3-7 2-9 3-5 2-5 6-8h2l1-3 5-3 8-1h10v-2z" fill="#3B536A"/>
<path transform="translate(1302,930)" d="m0 0h8l-4 2v2l-9 6-8 9-11 16-19 28-14 20-11 16-25 37-16 23-10 14-8 12-12 17-14 21-10 14-8 12-12 17-20 30-8 13-3 12v7l4 13 6 9 11 12 14 15 7 8 9 10 7 8 12 13 9 10 9 11 8 8 7 8 11 12 7 8 11 12 7 8 11 12 7 8 9 10 11 12 9 10 9 11 8 8 7 8 11 12 7 8 11 12 9 10 4 5 3 5 1 3-5-1-6-4-13-15-7-9-7-6-7-8-1-3h-2l-5-6v-2h-2l-9-11-5-5-9-10v-2h-2l-5-6v-2l-4-2-9-11-5-6-6-5-7-8-2-4h-2l-5-6v-2h-2l-8-11-7-6-7-8-1-3-3-1-7-8-11-13-4-4v-2l-3-1-7-8-1-3-3-1-4-5v-2h-2v-2h-2l-10-13-7-6-7-8-5-5v-2h-2l-9-11-3-5-5-5-5-4-3-4v-3h-2l-6-9v-11l1-17 3-4 3-9h2l3-9h2l6-12h2l2-5h2l2-7h2l2-4 6-10 5-6 7-10 7-11 3-4h2l2-5 4-6 6-10 4-5 6-9 14-20 4-6 4-5h2l1-5 7-9 4-6 7-11 6-9 3-5h2l2-5 8-12h2l2-7h2l2-4 7-11 6-8 3-6 5-5 3-6h2l6-12h2l2-5 4-7h2l2-5h2l2-5 4-6 3-3z" fill="#3C526A"/>
<path transform="translate(511,985)" d="m0 0h9l-4 2v2l-9 5-8 9-5 10-1 5v23l2 34 4 39 4 27 5 25 7 28 8 24 11 27 14 29 15 29 14 24 12 20 16 26 15 24 14 23 10 17 20 40 9 22 8 28 4 19 2 9 1 2h-3v-2l-4-2-4-9-2-5-2-10-5-18-8-23-6-13-9-19-10-19-3-6-4-6-6-10-1-3-2-1-2-5-3-4v-3h-2l-7-12-3-4-5-9-3-4-5-9-2-2v-4h-2l-9-15-8-13-5-8-2-5-3-5-4-6-9-19-10-18-5-11-4-8-5-14-4-9-6-15-2-8-2-5-3-12-5-18-5-27-5-36-2-18-3-49v-11l2-14 2-4 5-5 8-10 5-5z" fill="#3B536A"/>
<path transform="translate(676,607)" d="m0 0 4 1-6 2h-3v2l-31 11-19 7-29 10-17 7-20 11-12 9-13 11-9 10-12 17-8 13-10 23-5 18-3 19-1 30v136l3 10 6 7 6 4v2l7 2-3 1-13-3-6-5-7-11-2-23-2-27v-29l2-45 1-47 1-11 4-16 3-4 1-9 3-4 3-8 10-19 8-13 8-10 6-8 8-7 10-10h2v-2l6-4 12-9 20-9 15-6 1-1 9-1v-2l12-3 9-3 11-4 6-3 9-3 7-2h12z" fill="#3C536A"/>
<path transform="translate(697,926)" d="m0 0h16v2l-12 3h-3v2l-21 7-26 9-15 5-25 8-40 12-22 6-17 3-6 2h-5l3-2 8-3 5-5 15-3 10-3 7-2 1-1 11-2 9-3 7-3 12-3 11-3 4-2 8-2 4-2 9-2 9-3 7-3 10-3 17-6h4v-2z" fill="#3C536A"/>
<path transform="translate(1338,925)" d="m0 0 7 1 12 3 28 10 43 14 36 11 42 12 3 3v2h-7l-10-3-9-2-26-7-21-7-17-5-81-27-6-1v-2z" fill="#3A546B"/>
<path transform="translate(658,919)" d="m0 0 3 2-11 4-9 3-6 3-6 1-16 5-7 3-9 3-14 5h-3v2l-7 3-7 1-2 2-10 2-4 3-19 5-6 3h-8v2l-2 1h-8l-2-3 13-3 10-4 19-6 17-5 8-3 6-2 11-3 7-3 30-10 11-3 7-3 6-2z" fill="#3A546B"/>
<path transform="translate(688,604)" d="m0 0h5l9 8 1 4-4-2-7-4-7-2z" fill="#3A546B"/>
<path transform="translate(1517,679)" d="m0 0 5 2v2h2l4 5 2 4 3 3 2 5-1 4-7-12-3-3v-2l-4-2z" fill="#3A536A"/>
<path transform="translate(822,1416)" d="m0 0h3v4h-2v2l-8 7h-2l-2 4-3 1v-3h2v-2h2v-2h2v-3h2l2-4h2z" fill="#3A546B"/>
<path transform="translate(1355,608)" d="m0 0 13 1 6 2 2 2-6-1-3-1-16-1z" fill="#484E67"/>
<path transform="translate(914,1313)" d="m0 0h2l-2 5h-2l-1 3-4 3-2-1 5-7z" fill="#3A546B"/>
<path transform="translate(716,893)" d="m0 0h1v5l-3 3-8 1 4-2v-2l5-3z" fill="#3A546B"/>
</svg>
