<?xml version="1.0" encoding="UTF-8"?>
<svg version="1.1" viewBox="0 0 2048 2048" width="512" height="512" xmlns="http://www.w3.org/2000/svg">
<path transform="translate(841,149)" d="m0 0 10 1 17 7 36 17 33 15 17 6 17 5 23 4 21 2h15l22-2 25-5 21-6 31-13 31-14 32-14 6-2h15l10 4 5 4 7 10 3 12v90l3 3 62 30 16 8 33 16 19 9 16 8 92 45 17 8 32 16 35 16 28 11 21 9 17 9 16 8 27 16 21 14 18 13 16 13 15 13 8 8 6 5 7 8 7 7 9 11 11 14 16 24 10 18 11 25 7 19 10 36 5 24 5 30 3 31 1 15 1 34-1 39-4 45-4 29-6 33-3 16v2h2v2l4 2 10 9 8 7 7 7 7 8 9 10 13 17 11 15 11 17 14 25 11 22 10 24 12 36 8 30 6 31 5 37 2 28 6 31 5 32 2 22 1 18v12l-2 34-4 31-6 26-8 26-10 24-11 22-18 27-11 14-11 12-4 5-8 7-7 7-11 9-13 10-21 14-23 13-21 10-28 11-30 10-4 1h-11l-11-4-12-11-7-7-11-14-11-17-11-21-8-20-8-24-8-32-6-35-5-46-1-21v-56l-4-7-9-11-20-26-14-18-10-13-4-4-14 21-14 19-13 16-10 15-8 14-8 19-6 21-3 16-1 13v23l3 24 8 48 13 80 7 44 6 35v12l-4 10-7 8-7 5-19 5-198 40-70 14-66 13-54 7-47 4-15 1h-64l-38-2-40-4-37-5-43-8-112-23-193-40-10-5-7-7-5-10-1-3v-13l19-115 11-67 5-31 2-21v-17l-2-20-4-19-6-18-12-25-10-15-11-14-10-13-12-17-9-14h-3l-12 16-14 18-20 26-12 15-2 4-7 50-8 49-9 44-11 44-9 30-8 24-10 25-5 9-7 7-11 5-10 1-12-3-35-12-33-14-25-12-17-9-23-14-17-12-14-11-14-12-21-21-9-11-11-14-12-19-10-19-8-19-8-26-5-28-2-25v-19l2-22 5-30 7-25 8-23 3-12 3-34 5-34 7-33 8-29 11-32 11-25 11-22 12-21 12-18 10-14 10-13 10-11 7-8 11-12 12-11 10-8-2-13-6-31-5-36-5-56v-51l3-37 3-26 7-39 10-37 7-21 10-24 12-22 12-19 16-21 12-14 29-29 11-9 16-13 18-13 15-10 18-11 23-13 15-8 24-11 27-11 20-8 23-11 16-8 78-38 80-39 28-14 24-11 16-8 39-19 8-4 1-3v-89l3-12 4-6 5-5 7-5 5-2z" fill="#484E67"/>
<path transform="translate(740,542)" d="m0 0h25l30 5 25 7 23 8 29 12 34 16 31 16 24 14 16 10 9 8 7 11 5 11 2 8 1 10v189l-2 15-4 13-8 14-9 10-9 8-16 8-26 7-36 10-36 12-50 17-102 34-13 4h-18l-18-4-16-6-17-9-9-7-10-9-11-12-9-11-11-12-12-12-14-11-17-11-21-11-28-10-24-5-8-4-5-6-1-3v-11l5-9 12-17 11-17 8-13 12-21 12-25 6-16 7-22 6-15 6-11 7-11 10-14 9-11 9-10 11-12 16-16 8-7 14-12 20-15 16-11 24-14 23-11 27-9z" fill="#9DA9C9"/>
<path transform="translate(1284,542)" d="m0 0h24l17 3 17 5 20 8 16 8 15 8 16 10 18 13 22 18 10 9 8 7 22 22 9 11 10 12 13 19 10 18 6 17 6 20 9 21 8 16 12 22 10 16 13 19 11 16 3 6v8l-5 9-5 4-10 3-21 5-23 8-19 9-16 10-16 12-15 14-7 7-9 11-11 13-12 12-15 11-16 8-18 6-15 3h-17l-23-7-41-14-63-21-43-15-48-15-35-9-15-5-12-7-10-9-7-8-7-12-5-15-1-6v-206l4-15 6-11 9-10 8-7 22-13 27-15 17-9 23-11 28-12 27-10 26-8 22-5z" fill="#9DA9C9"/>
<path transform="translate(1530,494)" d="m0 0h22l29 3 25 6 20 8 29 14 23 13 17 12 13 10 15 14 10 10 9 11 11 15 8 13 10 19 8 19 10 30 6 26 5 30 3 34 1 27v28l-2 43-3 34-5 39-6 38-1 5-5-2-25-20-13-11-14-12-11-10-8-7-8-8-8-7-23-23-7-8-13-14-11-14-12-15-11-17-10-18-6-13-13-40-11-26-13-26-16-27-8-12-12-17-9-12-13-15-12-13-12-12-11-9-8-7-18-13-23-13-21-9-19-5-12-2-2-2 34-14 35-12 32-8 34-6z" fill="#9DA9C9"/>
<path transform="translate(497,494)" d="m0 0h24l37 4 34 7 31 9 29 10 25 11 2 1v2l-17 3-14 4-16 6-21 11-15 10-18 14-15 14-22 22-9 11-13 16-13 19-11 17-12 21-9 17-12 28-12 36-5 14-8 16-9 15-12 17-8 10-14 17-14 15-7 8-30 30-8 7-15 14-11 9-10 9-14 11-10 8-11 8-2-1-5-28-6-47-4-44-1-18v-71l2-25 4-31 7-34 9-29 10-24 10-19 5-9 11-16 11-13 7-8 13-13 11-9 10-8 15-10 21-12 17-9 26-11 15-5 18-4z" fill="#9DA9C9"/>
<path transform="translate(1646,929)" d="m0 0h8l13 10 14 11 19 14 18 13 19 13 31 21 8 6 5 6 7 16 10 25 15 38 14 36 11 28 19 48 7 19 5 20 3 22v27l-5 51-11 90-2 17-4 10-9 10-10 5-5 1h-8l-13-5-12-9-13-12-19-19-9-11-11-13-7-10-8-12-11-17-14-24-15-28-15-33-14-34-13-36-15-47-9-32-8-35-3-16-1-10v-112l2-13 9-14 7-7 12-6z" fill="#F4004E"/>
<path transform="translate(395,929)" d="m0 0h8l13 4 11 8 7 8 5 12 1 4v124l-3 16-6 29-6 21-10 34-19 57-11 28-15 35-16 33-12 22-14 23-11 16-10 14-8 10-9 11-11 12-18 18-11 9-9 6-10 3h-9l-10-4-6-4-8-9-4-12-5-39-3-25-3-29-3-23-3-27-1-13v-27l2-15 6-24 6-17 5-12 19-48 5-12 13-34 28-70 9-21 7-7 42-28 17-12 16-12 18-13 14-11z" fill="#F4004E"/>
<path transform="translate(1071,976)" d="m0 0 16 4 55 18 72 24 53 18 31 10 16 5 15 3 10 4 5 4 6 10 2 7v19l-3 16-6 18-6 15-12 22-12 19-10 13-11 13-13 11-7 3-7-1-26-12-31-13-19-7-25-8-40-10-53-12-10-4-6-5-5-9v-156l4-8 7-7 5-3z" fill="#9DA9C9"/>
<path transform="translate(973,977)" d="m0 0h11l9 5 6 8 3 8v149l-3 8-6 8-10 5-29 7-48 11-29 8-29 10-31 13-30 13-6 2-7-2-10-8-9-9-11-14-10-15-12-21-10-21-7-21-4-18v-19l3-10 6-9 7-5 9-3 18-4 52-17 28-10 63-21 40-13 25-8z" fill="#9DA9C9"/>
<path transform="translate(962,1441)" d="m0 0 20 1 8 4 7 8 4 9v226l-4 10-7 8-8 4-7 1h-100l-12-2-14-7-9-9-7-14-2-11v-187l3-12 5-9 9-10 10-6 9-3z" fill="#9DA9C9"/>
<path transform="translate(1068,1442)" d="m0 0h113l13 4 11 8 7 9 5 11 1 5v193l-2 8-7 14-9 9-14 7-12 2h-102l-9-3-8-6-4-5-2-6-1-14v-213l4-10 7-8z" fill="#9DA9C9"/>
<path transform="translate(967,1208)" d="m0 0h18l8 5 5 6 3 8v158l-4 9-4 5-6 4-9 2h-134l-15-2-10-5-10-10-9-15-12-23-4-12-1-13 2-14 5-13 7-10 6-7 11-9 18-13 21-13 15-8 30-13 21-7 25-6z" fill="#9DA9C9"/>
<path transform="translate(1065,1208)" d="m0 0h15l24 4 26 6 23 8 25 11 21 11 19 12 14 10 16 13 9 11 6 13 3 12v14l-3 13-8 17-12 20-7 9-8 7-9 4-15 2h-130l-12-2-6-4-5-6-2-6-1-11v-145l2-9 4-6 8-7z" fill="#9DA9C9"/>
<path transform="translate(803,334)" d="m0 0h10l12 4 9 6 8 11 5 16 10 35 11 29 11 25 10 21 2 7v8l-3 9-7 9-9 6-9 2-17-2-157-29-95-17-10-4-5-6-2-10 2-8 5-6 16-9 23-11 17-9 23-11 24-12 23-11 32-16 46-22 10-4z" fill="#9DA9C9"/>
<path transform="translate(1237,334)" d="m0 0h11l15 6 25 12 26 13 23 11 24 12 23 11 78 39 7 6 3 6v7l-4 10-6 5-17 4-232 42-16 3-13 1-9-3-9-7-5-8-2-5v-14l7-16 10-21 14-36 10-33 6-21 6-10 7-7 10-5z" fill="#9DA9C9"/>
<path transform="translate(1423,1319)" d="m0 0 6 2 3 3 1 5v121l-3 21-6 21-8 18-9 14-9 12-19 19-11 9-10 9-11 9-10 9-13 10-4 1-6-4-1-2v-102l2-18 5-21 7-19 10-19 12-17 12-14 9-10 9-11 13-14 7-8 12-13 7-8z" fill="#9DA9C9"/>
<path transform="translate(624,1319)" d="m0 0 5 1 9 9 7 8 18 20 9 11 12 13 7 8 13 16 10 15 8 16 7 18 5 21 2 17v104l-5 5-4 1-6-4-28-24-11-9-12-11-8-7-11-11-11-15-8-14-7-16-5-17-3-19v-130l5-5z" fill="#9DA9C9"/>
<path transform="translate(1169,238)" d="m0 0 7 1 4 4 2 11v42l-4 29-6 28-7 23-10 28-11 26-13 27-12 22-13 23-16 26-15 22-6 8-7 7-9 3-9-1-9-6-4-5-2-7 1-10 11-35 12-37 12-36 17-52 12-36 5-12 8-15 14-19 28-36 13-17z" fill="#9DA9C9"/>
<path transform="translate(876,238)" d="m0 0h5l7 7 10 13 28 36 14 19 10 18 6 14 12 36 17 53 14 42 6 19 14 43 1 4v8l-3 7-4 5-6 4-3 1h-13l-6-4-9-10-14-21-14-22-9-15-14-25-15-29-12-27-11-29-10-32-5-23-4-29-1-10v-33l2-14 5-5z" fill="#9DA9C9"/>
<path transform="translate(1414,1568)" d="m0 0h8l6 4 4 5 1 4v60l-2 16-3 13-7 16-9 15-12 14-11 11-7 8-9 9-7 8-15 16-14 14-6 3h-8l-6-4-4-6v-77l2-15 5-17 9-17 8-10 8-9 8-7 8-8 8-7 9-9 8-7 12-11 8-7z" fill="#9DA9C9"/>
<path transform="translate(628,1568)" d="m0 0h7l9 6 14 13 8 7 8 8 10 8v2l4 2 9 9 8 7 7 7 10 14 7 14 5 15 2 13v78l-3 8-7 5h-8l-7-4-11-11-7-8-9-9-7-8-12-12-7-8-15-16-11-15-8-16-4-12-3-17v-70l4-6z" fill="#9DA9C9"/>
<path transform="translate(1848,1107)" d="m0 0 6 1 9 7 15 14 9 11 11 15 11 19 12 25 11 33 7 30 4 22 4 36v33l-3 17-7 19-13 26-9 16-3 5-3 2h-8l-4-3-1-4v-140l-2-30-4-27-6-23-9-25-8-20-7-15-17-33v-7z" fill="#F38065"/>
<path transform="translate(197,1107)" d="m0 0 6 1 3 3v6l-14 29-10 21-10 25-10 30-5 25-3 24-2 52v75l1 34-2 4-5 2h-6l-5-5-12-23-10-19-7-18-4-20-1-11v-14l2-24 3-24 7-34 8-27 7-19 11-24 13-22 8-11 9-11 12-13 14-11z" fill="#F38065"/>
<path transform="translate(1602,1187)" d="m0 0h6l5 10 10 29 13 33 12 29 12 28 16 35 13 29 2 5v5l-1 1-7-1-11-9-10-11-10-13-12-18-13-23-11-22-10-26-5-22-1-10v-47z" fill="#F38065"/>
<path transform="translate(442,1186)" d="m0 0 5 1 2 4v46l-2 15-4 16-8 21-8 18-10 19-9 15-8 12-10 13-11 13h-2l-1 3-11 9-6 1-1-5 6-16 16-34 12-27 12-28 13-32 7-19 14-39z" fill="#F38065"/>
</svg>
