<?xml version="1.0" encoding="UTF-8"?>
<svg version="1.1" viewBox="0 0 2048 2048" width="512" height="512" xmlns="http://www.w3.org/2000/svg">
<path transform="translate(838,149)" d="m0 0 13 2 57 26 14 7 25 10 21 6 22 4 21 2h17l27-3 30-7 22-8 43-19 41-18 4-1h14l8 3 6 4 7 8 4 10 1 96 19 10 47 23 75 36 42 21 23 11 22 11 23 11 28 14 23 11 23 10 28 11 26 12 24 12 24 14 19 12 20 14 14 11 13 11 8 7 12 11 15 15 7 8 13 16 14 20 11 19 8 15 8 19 11 33 8 32 5 27 3 19 3 33 1 22v49l-2 32-4 37-6 37-5 25v5l14 12 24 24 9 11 13 16 14 20 8 13 10 17 9 17 10 22 13 35 9 30 8 37 5 33 2 17 1 15v28l-9 19-13 23-16 30-13 23-13 25-13 23-9 17-9 16-14 26-10 18-14 26-10 18-13 24-13 23-9 17-13 23-14 27-10 17-6 7-11 6-4 1h-12l-10-4-8-7-7-10-12-22-13-26-11-27-10-27-10-33-7-29-7-39-3-29-1-18v-38l-6-9-11-14-14-18-10-13-14-18-5-6-7 10-6 9-10 14-22 28-8 13-10 19-7 20-4 15-3 19v35l7 46 14 85 10 61 5 30v19l-4 8-8 9-8 4-27 6-202 41-100 20-22 4-45 6-42 4-27 2h-64l-41-2-47-5-40-6-41-8-78-16-58-12-136-28-26-6-10-6-7-9-3-8-1-8 4-26 17-104 7-43 8-49 1-11v-34l-3-19-6-21-8-20-10-18-11-15-12-15-13-18-12-18v-2h-4l-2 5-12 15-9 12-14 18-20 26-1 45-3 35-4 27-6 28-9 35-13 38-12 29-12 26-9 16-9 8-9 4-10 1-9-2-10-6-8-10-34-56-15-25-34-56-21-35-14-23-16-26-24-40-51-84-11-19-4-9-1-9 2-31 4-33 5-28 7-30 7-24 10-29 9-21 8-16 9-17 14-23 14-20 11-14 12-14 15-16 8-8 16-14-4-19-7-41-4-34-3-38v-56l3-40 4-30 6-31 8-31 9-27 9-21 13-25 11-17 9-12 11-14 18-20 11-11 8-7 11-10 14-11 19-14 15-10 21-13 22-12 23-12 30-13 28-11 33-16 23-11 17-8 16-8 39-19 26-13 23-11 41-20 22-11 26-12 16-8 35-17 1-96 3-8 6-9 8-6 7-3z" fill="#484E67"/>
<path transform="translate(1277,542)" d="m0 0h29l23 5 27 10 17 8 21 12 14 9 19 14 14 11 12 11 8 7 17 16 9 10 11 13 11 14 10 15 9 17 8 24 7 20 11 24 12 23 12 19 8 12 7 10 9 14 3 6v10l-4 7-9 6-32 8-17 6-15 7-18 10-14 10-13 11-10 9-9 10-11 14-12 13-9 8-13 9-19 9-18 5-11 2h-14l-16-5-33-11-41-14-40-13-31-11-37-12-27-8-38-10-16-8-10-8-9-10-7-12-5-15-2-11-1-16v-147l1-37 3-15 8-15 8-9 15-10 24-13 21-12 23-11 32-15 28-11 33-11 25-6z" fill="#F7004E"/>
<path transform="translate(735,542)" d="m0 0h27l30 5 17 5 33 11 28 12 25 12 16 8 27 14 24 14 12 8 9 8 8 13 4 11 2 16v186l-3 22-5 13-7 11-9 10-10 8-14 7-48 13-30 9-79 27-84 28-23 7h-14l-18-4-12-4-19-9-10-7-14-12-10-11-11-14-12-13-9-9-13-10-10-7-16-9-19-9-11-4-14-4-23-5-8-6-4-5-1-3v-8l6-12 8-11 13-20 11-18 10-18 8-15 6-13 8-23 5-17 8-17 10-16 8-11 13-16 14-15 3-4h2v-2h2v-2l8-7 8-8 11-9 13-11 19-14 19-12 18-10 21-10 15-6 21-6z" fill="#F7004E"/>
<path transform="translate(1531,494)" d="m0 0h13l25 2 18 3 21 6 21 9 32 16 21 13 16 12 11 9 15 14 9 10 13 17 10 15 11 21 10 24 8 25 7 29 4 25 3 29 1 18v57l-2 37-4 39-4 31-6 38-1 2-5-2-12-10-14-11-14-12-11-10-11-9-8-8-8-7-36-36-7-8-10-11-11-14-10-13-10-15-10-17-8-18-13-40-11-26-12-24-15-25-12-18-10-14-7-9-11-13-7-8-14-15-8-7-11-10-13-10-15-10-17-10-23-10-22-6-9-1v-3l24-10 25-9 26-8 29-7 31-5z" fill="#9DA8C9"/>
<path transform="translate(496,494)" d="m0 0h18l24 2 26 4 28 6 24 7 30 10 29 12v3l-14 2-20 6-21 9-19 11-14 10-14 11-15 14-18 18-18 22-12 16-14 21-12 20-12 23-9 19-10 27-12 36-10 19-12 18-8 11-9 11-8 10-14 15-7 8-15 15-3 4h-2l-1 3-8 7-13 13-11 9-12 11-11 9-14 12-14 11-8 6h-2l-4-22-6-45-4-38-2-27-1-24v-41l2-30 4-34 5-25 5-21 9-27 11-25 11-20 11-16 9-11 11-12 15-15 11-9 14-10 16-10 23-12 16-8 25-10 25-6 17-2z" fill="#9DA8C9"/>
<path transform="translate(1646,928)" d="m0 0 6 2 16 12 14 11 36 26 41 28 16 11 6 12 8 20 5 13 16 40 14 36 26 65 10 26 5 18 3 17 1 9v33l-4 40-12 104-3 13-6 10-8 7-10 4h-15l-12-6-9-7-13-12-5-4-7-8-10-10-20-25-14-20-13-21-8-13-6-12-10-19-12-25-7-17-5-11-14-37-12-36-10-33-9-34-9-38-1-9v-118l2-10 4-9 7-9 7-6 10-5z" fill="#9DA8C9"/>
<path transform="translate(394,928)" d="m0 0 14 3 11 6 7 6 7 11 4 11v128l-6 27-8 32-12 40-8 25-11 32-11 28-14 32-12 25-12 23-12 20-12 19-12 17-9 12-12 14-7 8-19 19-11 9-11 7-8 3h-14l-14-7-7-8-4-10-7-57-9-75-2-25v-26l3-22 5-20 8-23 5-12 12-30 15-38 13-33 23-58 8-20 5-5 38-26 17-12 14-10 18-13 16-12 14-11z" fill="#9DA8C9"/>
<path transform="translate(1065,976)" d="m0 0 14 3 42 14 43 14 72 24 40 14 28 9 23 5 10 6 6 8 3 8 1 6v12l-3 17-5 16-7 18-10 19-12 20-13 17-9 10-9 9-12 7-7-1-26-12-31-13-34-12-29-8-74-17-9-4-6-4-6-9-1-4v-150l3-8 8-9z" fill="#9DA8C9"/>
<path transform="translate(968,977)" d="m0 0h10l8 4 7 8 3 7v153l-5 10-5 5-8 4-64 15-36 9-19 6-21 8-29 12-27 12-9 2-11-7-6-5-7-8-9-11-13-20-11-19-10-22-6-18-4-18v-21l4-11 6-8 6-4 16-4 29-9 40-13 41-14 105-35z" fill="#9DA8C9"/>
<path transform="translate(1066,1442)" d="m0 0h112l12 4 9 6 9 10 5 11 2 12v179l-2 15-7 14-7 8-11 7-9 3-9 1h-101l-10-3-10-9-3-6-1-8v-221l4-10 8-9z" fill="#9DA8C9"/>
<path transform="translate(865,1442)" d="m0 0h113l8 4 7 7 4 8 1 5-1 225-5 10-4 5-10 5-8 1h-100l-16-4-11-7-7-8-6-12-2-10v-191l4-13 6-9 9-9 13-6z" fill="#9DA8C9"/>
<path transform="translate(964,1208)" d="m0 0h17l6 3 5 4 5 8 1 7-1 157-4 8-9 8-9 2h-136l-13-2-10-5-6-5-10-14-13-24-5-12-2-9v-13l3-14 8-16 10-11 11-9 17-12 21-13 23-12 27-11 23-7 17-4z" fill="#9DA8C9"/>
<path transform="translate(1060,1208)" d="m0 0h16l25 4 32 8 26 10 18 8 22 12 24 16 17 13 11 11 8 15 3 11v20l-2 8-5 12-11 20-8 12-8 9-10 5-8 2-9 1h-128l-11-1-8-4-5-5-3-6-1-8v-151l2-9 7-9z" fill="#9DA8C9"/>
<path transform="translate(801,334)" d="m0 0h7l14 4 8 6 7 8 5 13 8 30 10 29 10 24 12 25 5 13v12l-6 12-7 7-8 4h-17l-224-41-37-7-8-4-5-6-1-3v-9l4-8 6-5 21-11 19-9 17-9 23-11 26-13 23-11 34-17 23-11 19-9z" fill="#9DA8C9"/>
<path transform="translate(1235,334)" d="m0 0 12 1 13 5 22 11 23 11 38 19 23 11 54 27 19 9 22 12 6 7 1 2v11l-3 6-7 6-17 4-35 6-54 10-34 6-54 10-72 13h-15l-10-5-7-7-4-8-1-12 5-14 12-26 11-27 11-33 9-32 6-9 5-5 9-6z" fill="#9DA8C9"/>
<path transform="translate(621,1319)" d="m0 0 4 1 3 2v2l3 1 7 8 9 10 7 8 9 10 9 11 12 13 7 8 11 14 9 14 8 16 6 15 5 21 2 13 1 13v96l-5 6-4 1-6-4-11-9-15-13-13-11-8-7-10-9-15-15-7-10-7-11-8-16-7-21-3-16-1-22v-99l1-15 2-3z" fill="#9DA8C9"/>
<path transform="translate(1419,1319)" d="m0 0 5 1 5 5v129l-4 24-5 15-8 18-9 14-8 10-9 10-15 14-11 9-15 13-14 12-11 8h-5l-5-5v-110l5-25 6-18 8-18 8-13 12-16 13-15 18-20 9-11 16-17 9-10z" fill="#9DA8C9"/>
<path transform="translate(1166,238)" d="m0 0 6 1 4 4 2 7 1 12v27l-4 34-6 28-10 33-8 21-7 17-12 26-16 31-10 17-9 15-10 16-12 18-8 11-6 7-7 4-10 1-10-5-7-8-1-3v-12l16-49 21-64 14-44 14-41 8-18 7-11 14-19 14-18 16-21 12-15z" fill="#9DA8C9"/>
<path transform="translate(873,238)" d="m0 0 5 1 5 5 7 8 20 26 14 18 14 19 12 23 12 35 16 50 20 61 12 36 6 19 1 9-4 10-8 7-8 3-9-1-8-5-10-13-10-15-14-22-8-13-12-21-13-25-8-16-12-27-9-24-9-28-7-32-3-21-1-12v-36l2-13 4-5z" fill="#9DA8C9"/>
<path transform="translate(625,1568)" d="m0 0h7l8 6 10 9 8 7 13 12 5 4v2l4 2 16 15 14 14 10 14 6 13 5 17 2 18v69l-3 8-6 5-3 1h-7l-8-6-14-14-7-8-12-12-7-8-16-17-12-13-10-14-8-17-4-13-2-11-1-14v-55l2-7 7-6z" fill="#9DA8C9"/>
<path transform="translate(1410,1568)" d="m0 0h8l6 3v2h2l3 5v70l-4 20-6 15-6 11-9 12-18 20-8 8-7 8-15 16-9 9-7 8-8 7-5 2h-8l-8-7-1-3v-82l3-15 3-10 8-16 8-11 9-10 9-9 8-7 16-15 12-11 8-7 11-10z" fill="#9DA8C9"/>
<path transform="translate(1845,1107)" d="m0 0 6 1 11 9 16 16 13 17 10 16 12 23 8 20 7 21 8 32 5 30 3 29v31l-3 16-6 17-8 16-15 29-5 7-5 2-6-3-3-4 1-75v-32l-1-34-3-37-3-18-6-23-8-24-12-28-12-25-9-17-1-7z" fill="#9DA8C9"/>
<path transform="translate(193,1107)" d="m0 0 6 1 5 5-5 12-13 25-16 37-12 36-5 27-3 30-1 30v123l-5 5h-7l-6-7-15-28-11-23-5-17-2-13v-25l4-36 5-29 6-25 11-33 9-20 10-19 10-15 10-13 7-7 7-8 10-9z" fill="#9DA8C9"/>
<path transform="translate(1602,1186)" d="m0 0 3 1 5 11 10 29 14 36 11 26 15 35 12 26 13 28 3 8-1 4-6 1-11-9-12-13-15-20-14-23-13-25-9-21-6-18-3-12-2-23v-33l2-6z" fill="#9DA8C9"/>
<path transform="translate(437,1187)" d="m0 0 7 1 2 3v42l-2 18-5 19-8 20-12 25-11 20-14 21-11 14-11 12-9 9-4 1-4-3 1-7 12-26 16-35 18-42 13-33 12-32 8-24z" fill="#9DA8C9"/>
<path transform="translate(806,1385)" d="m0 0 5 5 10 8-3 1-8-6-4-5z" fill="#CDD0DB"/>
</svg>
