<?xml version="1.0" encoding="UTF-8"?>
<svg version="1.1" viewBox="0 0 2048 2048" width="512" height="512" xmlns="http://www.w3.org/2000/svg">
<path transform="translate(532,44)" d="m0 0h984l11 4 10 9 4 8 2 10-2 117-2 108-1 64v56l8 16 17 36 13 30 16 40 13 35 17 50 10 33 12 43 12 48 11 52 6 33 9 57 5 42 4 46 3 47 1 74-1 64-4 80-5 65-4 44-7 66-8 65-5 37-11 76-9 58-16 96-16 94-10 61-4 29-3 31-3 9-7 9-9 6-8 2-221 1h-150l-9-4-7-6-10-16-8-14-11-23-11-24-11-27-11-29-12-34-15-49-12-45-10-41-12-55-8-41-11-63-9-60-3-23-1 3-6 46-12 73-12 64-11 51-14 56-8 31-13 42-12 36-14 38-17 40-17 35-11 20-8 11-7 5-8 3h-144l-228-1-10-4-9-8-6-12-4-39-10-64-11-65-8-47-14-84-11-70-14-97-6-49-3-24-7-63-6-65-4-51-3-54-2-52v-101l1-28 4-55 4-40 5-38 10-62 11-55 12-50 12-44 9-31 17-52 12-33 18-46 12-28 12-27 8-16 10-21v-28l-1-67-1-48-2-89-1-58v-59l4-10 6-7 11-7z" fill="#484E67"/>
<path transform="translate(1370,266)" d="m0 0h51l13 4 11 7 7 9 4 8 3 14 2 34 3 84v66l-3 72-4 55-5 43-5 33-8 39-5 20-7 25-11 31-11 24-11 21-10 15-13 16-13 13-12 9-13 8-16 7-21 7-22 5-22 3h-24l-20-2-18-4-24-8-17-8-14-8-16-11-10-8-10-9-8-7-11-11-9-11-7-8-12-16-9-14-4-8-1-3-1-44v-261l1-45 10-16 4-6h2l2-5 13-16 10-11 7-8 6-7 8-7 12-11 14-11 14-10 16-11 13-8 19-11 32-14 20-8 25-8 23-6 43-8 25-3z" fill="#F8004E"/>
<path transform="translate(620,266)" d="m0 0h43l20 1 38 5 31 6 30 8 29 10 19 8 29 14 24 14 15 10 17 13 11 9 13 12 12 11 13 14 9 11 11 13 8 11 8 13 2 9v341l-4 12-12 19-7 9-13 16-11 12-17 17-11 9-15 11-13 8-15 8-20 8-21 6-17 3-11 1h-25l-17-2-20-4-26-8-10-4-16-8-12-8-14-12-2-4h-2l-7-8-10-13-11-17-13-25-8-19-6-16-10-33-6-25-8-42-7-49-4-40-3-46-2-47v-93l2-66 2-35 2-15 4-10 8-11 10-7z" fill="#F8004E"/>
<path transform="translate(733,978)" d="m0 0h16l12 4 11 8 7 10 5 16 10 54 10 55 5 28 13 70 4 23 9 49 16 88 11 62 11 59 5 28 8 46 2 17v38l-3 26-5 23-11 33-15 36-13 32-22 54-15 37-16 40-8 16-5 6-8 4-4 1h-7l-10-4-6-5-4-9-4-22-10-71-6-47-6-52-7-62-5-55-6-76-4-65-2-40-2-66-1-64 1-82 2-56 4-63 5-52 4-34 3-12 6-11 10-9 11-5z" fill="#9DA8C9"/>
<path transform="translate(1290,978)" d="m0 0h19l10 4 8 6 8 9 5 11 3 19 6 62 4 54 3 65 1 54v87l-1 23-1 37-2 52-3 48-5 73-9 99-10 89-9 71-10 70-3 13-5 9-9 6-7 2-10-1-8-5-6-7-11-25-15-37-12-30-14-34-17-42-22-54-6-19-6-25-3-23-1-16v-18l2-24 6-36 22-121 14-78 6-32 12-66 11-60 13-72 13-71 6-32 4-12 7-10 9-8 9-4z" fill="#9DA8C9"/>
<path transform="translate(1391,943)" d="m0 0h13l10 4 6 5 6 10 15 42 14 40 10 29 14 41 20 61 12 37 20 64 16 56 12 44 4 18 4 15 8 39 4 30v38l-3 43-5 48-10 78-11 73-8 51-11 66-3 14-5 10-7 6-8 3h-10l-9-4-5-4-8-14-14-34-14-37-13-40-13-48-8-38-6-42-3-33-1-20v-73l-4-111-3-53-1-24-6-84-2-30-3-41-5-61-6-68-4-44-2-19v-21l4-8 7-8 6-4z" fill="#9DA8C9"/>
<path transform="translate(636,943)" d="m0 0h13l9 4 8 6 5 8 2 7v10l-7 72-9 107-8 108-3 42-6 102-3 92-1 102-3 39-4 31-6 33-7 30-8 30-16 50-13 35-11 26-5 11-4 8-7 8-10 4h-9l-10-4-5-4-5-9-4-20-9-52-13-84-13-91-5-43-4-38-3-38v-55l6-36 6-28 11-44 15-54 13-43 18-58 19-58 14-43 16-47 14-40 19-54 6-11 9-8z" fill="#9DA8C9"/>
<path transform="translate(1517,646)" d="m0 0h7l5 3 8 16 10 25 10 28 12 38 12 46 8 35 7 36 5 32 7 51 4 41 4 61 1 23 1 74-1 49-3 59-4 51-2 10-5 5-8 2-5-3-5-8-11-31-9-27-17-48-16-44-16-43-12-33-11-30-22-62-13-37-10-33-4-16-1-6v-16l5-31 11-46 10-37 14-48 14-46 10-29 4-8z" fill="#9DA8C9"/>
<path transform="translate(516,646)" d="m0 0h8l6 4 4 8 13 40 10 33 11 37 16 59 9 40 4 26v19l-5 21-9 29-15 44-10 28-11 30-11 31-13 35-7 19-12 33-22 60-9 27-14 41-6 16-5 4h-9l-4-2-3-5-2-14-4-53-3-70v-81l2-60 3-41 4-42 6-49 7-43 9-45 10-42 12-42 12-36 11-30 9-21 6-7z" fill="#9DA8C9"/>
<path transform="translate(687,123)" d="m0 0h315l1 1v216l-3 8-7 9-8 4-9-1-12-9-11-9-13-11-15-13-26-22-14-11-14-10-19-11-27-13-17-6-19-5-25-4-32-2-12-3-11-6-10-10-6-12-3-11-3-45z" fill="#9DA8C9"/>
<path transform="translate(1073,122)" d="m0 0 281 1-1 29-2 34-3 15-4 10-11 12-9 6-10 4-5 1-33 2-25 4-15 4-23 8-18 8-20 11-13 9-13 10-11 9-10 9-11 9-30 26-17 13-9 5-9-1-9-7-5-10-1-12 1-208z" fill="#9DA8C9"/>
<path transform="translate(952,932)" d="m0 0h9l6 4 5 5 1 3v13l-6 64-11 121-6 64-6 70-5 52-3 34-7 77-3 29-3 8-6 4h-9l-6-5-2-6-9-71-7-59-7-53-7-46-7-47-11-62-9-46-7-30-6-23-1-6v-9l3-13 6-11 9-10 9-6 19-9 21-9 28-13z" fill="#9DA8C9"/>
<path transform="translate(1080,932)" d="m0 0h7l9 4 19 10 33 15 30 13 12 6 10 9 7 11 4 12v16l-6 25-10 43-11 58-11 65-7 50-10 71-12 101-3 26-3 8-4 4-3 1h-9l-5-4-3-8-10-107-7-79-4-42-5-58-5-51-7-81-9-98 1-8 4-6 6-5z" fill="#9DA8C9"/>
<path transform="translate(1377,123)" d="m0 0h102v16l-6 47-4 25-4 10-9 9-9 4h-16l-34-3-13-3-10-7-6-8-1-9 5-46 4-34z" fill="#9DA8C9"/>
<path transform="translate(561,123)" d="m0 0h102l2 6 6 50 2 22v9l-4 8-9 8-11 4-29 3-13 1h-12l-9-3-10-9-4-10-5-30-5-39-1-11z" fill="#9DA8C9"/>
<path transform="translate(338,1147)" d="m0 0 2 1-7 6 2-4z" fill="#9DA8C9"/>
<path transform="translate(1550,195)" d="m0 0 4 4-4-2z" fill="#9DA8C9"/>
<path transform="translate(1559,204)" d="m0 0 2 2h-2z" fill="#9DA8C9"/>
<path transform="translate(1555,200)" d="m0 0 2 2h-2z" fill="#9DA8C9"/>
<path transform="translate(329,1157)" d="m0 0" fill="#9DA8C9"/>
<path transform="translate(330,1156)" d="m0 0" fill="#9DA8C9"/>
<path transform="translate(331,1155)" d="m0 0" fill="#9DA8C9"/>
<path transform="translate(332,1154)" d="m0 0" fill="#9DA8C9"/>
<path transform="translate(341,1145)" d="m0 0" fill="#9DA8C9"/>
<path transform="translate(342,1144)" d="m0 0" fill="#9DA8C9"/>
<path transform="translate(504,304)" d="m0 0" fill="#9DA8C9"/>
<path transform="translate(505,303)" d="m0 0" fill="#9DA8C9"/>
<path transform="translate(507,301)" d="m0 0" fill="#9DA8C9"/>
<path transform="translate(504,281)" d="m0 0" fill="#9DA8C9"/>
<path transform="translate(503,280)" d="m0 0" fill="#9DA8C9"/>
<path transform="translate(1571,216)" d="m0 0" fill="#9DA8C9"/>
<path transform="translate(1567,212)" d="m0 0" fill="#9DA8C9"/>
<path transform="translate(1565,210)" d="m0 0" fill="#9DA8C9"/>
<path transform="translate(1564,209)" d="m0 0" fill="#9DA8C9"/>
<path transform="translate(1563,208)" d="m0 0" fill="#9DA8C9"/>
<path transform="translate(1562,207)" d="m0 0" fill="#9DA8C9"/>
<path transform="translate(1561,206)" d="m0 0" fill="#9DA8C9"/>
<path transform="translate(1558,203)" d="m0 0" fill="#9DA8C9"/>
<path transform="translate(1557,202)" d="m0 0" fill="#9DA8C9"/>
<path transform="translate(1554,199)" d="m0 0" fill="#9DA8C9"/>
<path transform="translate(1549,194)" d="m0 0" fill="#9DA8C9"/>
<path transform="translate(1548,193)" d="m0 0" fill="#9DA8C9"/>
<path transform="translate(1547,192)" d="m0 0" fill="#9DA8C9"/>
</svg>
