<?xml version="1.0" encoding="UTF-8"?>
<svg version="1.1" viewBox="0 0 2048 2048" width="512" height="512" xmlns="http://www.w3.org/2000/svg">
<path transform="translate(528,44)" d="m0 0h984l10 4 9 8 6 11v68l-2 104-2 132v49l9 19 8 16 9 19 13 30 12 30 14 37 19 56 11 36 12 44 12 48 11 53 6 33 8 52 6 52 4 50 2 35 1 47v52l-2 59-3 58-3 44-6 65-5 50-9 74-12 87-12 80-17 101-11 66-10 58-7 44-4 32-2 23-6 12-9 8-7 3-5 1-218 1h-152l-10-4-6-5-7-10-12-22-12-24-13-29-15-38-15-43-12-38-15-54-9-37-12-53-7-35-13-73-10-64-3-23h-1l-6 48-13 79-13 67-8 37-11 46-16 59-17 53-13 36-12 30-13 29-12 25-11 21-8 12-9 7-7 3h-145l-228-1-10-4-9-8-5-9-2-11-2-24-11-72-14-82-19-114-9-56-12-83-5-35-13-108-7-74-5-63-3-55-2-54v-94l1-29 4-56 5-48 5-37 9-56 12-59 9-37 9-35 15-52 14-43 10-27 6-17 11-28 12-29 9-21 9-20 16-32 1-4v-31l-1-69-1-13v-22l-2-122-1-88 2-9 6-9 9-7z" fill="#474E66"/>
<path transform="translate(1367,266)" d="m0 0h51l12 4 11 8 7 9 4 8 2 8 2 26 1 14 2 53 1 70-1 51-2 48-5 59-5 42-6 36-7 34-7 28-11 35-5 12-10 23-13 23-8 12-7 9-12 13-9 9-13 9-14 8-15 6-26 8-27 5-10 1h-31l-20-3-23-6-18-7-16-8-14-8-15-11-13-11-12-11-9-9-7-8-14-17-12-18-9-15-1-3v-93l1-29-1-1v-69l1-43-1-7v-107l10-16 13-18 11-13 9-10 7-8 15-15 8-7 14-12 19-14 19-12 19-11 16-8 15-7 20-8 34-11 29-7 30-5 20-3z" fill="#9DA7C9"/>
<path transform="translate(613,266)" d="m0 0h52l39 4 34 6 40 10 24 8 29 12 28 14 20 12 16 11 12 9 16 13 12 11 13 12 7 8 9 10 9 11 14 18 10 15 1 3v342l-1 10-10 17-14 19-11 14-15 16-7 7-8 7-15 12-15 10-18 10-16 7-18 6-20 5-16 2h-34l-20-3-25-6-20-7-21-10-11-8-11-9-7-8-10-11-12-17-12-22-9-19-10-26-9-29-8-32-8-42-7-49-4-41-3-47-2-54v-79l3-81 2-30 3-13 6-10 7-8 9-6 7-3z" fill="#9DA7C9"/>
<path transform="translate(726,978)" d="m0 0h20l10 4 8 5 7 7 5 10 6 26 9 49 12 67 16 87 9 51 7 38 13 70 18 99 15 85 2 25v34l-3 25-7 29-7 20-8 20-16 39-12 30-9 22-13 32-12 30-12 29-5 13-7 11-7 5-6 2h-9l-10-5-6-7-4-11-6-37-8-57-4-31-2-17-5-40-5-48-4-38-3-28-2-31-3-33-3-38-4-71-2-49-2-86v-37l1-58 3-72 5-70 4-39 4-29 4-11 4-6 5-5 5-4 11-5z" fill="#F6004D"/>
<path transform="translate(1284,978)" d="m0 0h20l10 4 9 6 8 9 4 11 3 18 4 36 4 48 4 68 1 33 1 70v34l-1 63-2 57-3 57-4 61-5 62-6 64-4 39-11 95-11 77-4 26-2 9-6 10-7 5-6 2h-10l-10-6-7-9-9-20-15-37-13-32-16-39-21-52-11-27-8-21-7-26-4-21-2-20v-35l2-21 9-52 7-40 12-66 9-50 11-59 7-39 18-98 10-54 10-57 7-37 5-21 7-11 7-7 12-6z" fill="#F6004D"/>
<path transform="translate(1389,942)" d="m0 0 10 1 11 4 9 10 10 26 17 49 19 55 12 36 15 44 16 50 14 44 17 58 14 50 12 51 5 27 3 22v63l-3 35-7 65-8 61-12 79-8 51-5 29-7 36-3 8-4 6-7 5-6 2h-11l-9-5-7-8-8-16-11-26-15-40-9-27-12-42-8-33-7-38-5-38-3-46-1-96-2-65-4-81-5-74-3-46-2-20-3-42-4-51-5-56-2-29-5-50v-14l4-9 7-8 8-5z" fill="#F6004D"/>
<path transform="translate(634,942)" d="m0 0h9l10 4 8 6 4 6 3 10v11l-7 71-3 33-7 83-4 57-7 98-5 96-3 81-1 95-2 40-5 42-6 32-7 30-8 29-8 26-12 35-8 22-15 36-6 12-5 6-7 5-8 2-7-1-10-5-7-8-4-13-9-49-11-70-9-59-7-51-5-38-3-30-3-31-2-24-1-26v-25l2-22 4-23 8-36 9-34 6-23 11-39 15-49 7-23 5-15 5-17 11-33 7-22 28-84 9-25 10-29 11-32 8-18 6-7 8-5z" fill="#F6004D"/>
<path transform="translate(513,645)" d="m0 0 8 1 6 7 10 30 13 43 12 40 16 59 7 29 6 34 1 12v11l-6 25-10 33-17 49-16 44-9 24-7 20-12 33-18 49-19 52-10 29-15 45-4 10-4 5-2 1h-11l-4-4-2-7-5-62-3-64v-107l4-76 4-44 5-41 6-40 8-43 9-39 8-32 9-30 12-36 10-27 9-21 5-8 3-3z" fill="#F98465"/>
<path transform="translate(1513,645)" d="m0 0 7 1 5 4 7 14 8 21 10 28 11 34 13 48 7 30 5 24 7 39 8 55 4 36 4 51 2 38 1 31v93l-2 46-2 35-4 47-3 7-5 3h-10l-4-4-14-41-10-28-7-21-12-34-21-57-9-24-6-17-20-55-16-45-7-20-12-36-7-25-3-13v-20l6-32 6-26 13-49 14-48 16-51 10-29 4-6 3-3z" fill="#F98465"/>
<path transform="translate(1033,123)" d="m0 0h315l1 5-3 52-2 16-3 10-6 10-9 9-14 7-9 2-24 1-25 3-20 5-21 7-21 9-19 10-16 11-13 10-13 11-14 12-11 9-10 9-11 9-14 12-10 7-10 2-8-4-6-5-3-6-1-5z" fill="#9EA8CA"/>
<path transform="translate(682,123)" d="m0 0h315l1 219-5 10-8 7-4 1h-10l-11-8-14-12-11-9-11-10-10-8-15-13-17-14-19-13-19-11-21-10-25-9-24-5-23-3-23-1-10-2-12-6-9-8-7-11-4-11-2-22-2-35z" fill="#9EA8CA"/>
<path transform="translate(948,932)" d="m0 0h8l6 3 5 6 1 3v11l-7 80-5 50-6 69-7 77-5 53-3 36-5 55-6 71-3 25-3 6-4 3-3 1h-11l-3-4-3-12-5-37-7-59-4-32-4-31-8-56-8-53-12-68-8-40-9-39-5-21v-17l3-10 7-11 8-9 15-8 26-11 15-7 19-9 16-8z" fill="#F6004D"/>
<path transform="translate(1077,931)" d="m0 0 9 2 19 10 25 12 46 20 10 6 9 7 6 9 5 13v18l-6 26-7 28-11 56-10 58-7 45-8 55-8 61-7 60-4 38-3 18-6 7-10 2-5-3-3-4-2-6-5-52-2-22-5-51-3-37-6-64-4-46-4-43-4-44-6-68-6-65-2-23v-10l3-6 6-5z" fill="#F6004D"/>
<path transform="translate(1493,815)" d="m0 0 1 2 5 2 10 8 6 7 2 1v2h2v2l4 2 5 6v2h7l6-4 3-4h2v-2h2l2-4h2l2-4h2l1-3 10-8 3-2h3l-1 4-6 8h-2l-2 5-5 6-6 5-8 10-1 4 9 10 11 11 8 6 5 5 7 8 4 5 3 3v3l3 1-1 5-5 6h-2v3h-3l-2 4-12 12h-2l-2 4-9 9-1 2h-2l-2 4-4 2-2 4-1 6 5 7 6 5v2h2v2l4 2 15 15 8 6 4 4 6 1 11-4h1v-19l-4-40-4-30-3-12v-17h1l7 48 4 36 4 51 2 38 1 31v93l-2 46-2 35-4 47h-1v-11l4-55 2-43 1-33v-46l-5-1-4 5-1 13-4-1v-2h-7l-7 6-3 3-6 4-3 3-3 2h-3v-2h2l2-4 10-14 3-1 1-7-4-6-2-1v-2h-2v-2h-2v-2h-2l-1-4h-2l-4-4v-2l-4-2v-2l5 2v2l4 2 13 11v2l5 2 5 1 8-7 8-4h2v-43l-3-55v-3l-6 3-1 9-1 3h-9l-7 6-2 3h-3l-2 4h-2l-1 3-8 7-4 5-5 5-6 7-5 4h-2l-3 10-1 1-7 1-4 3-3-1 1-5 2-7-2-6h4l1 2 5 1v-2h3l1-3 24-24 9-10h2l2-4 5-6-1-9-3-1-12-12v-2l-3-1v-2l-4-2v-2l-4-2-1-3-3-1v-2h-2v-2h-2v-2h-2l-5-6-2-1h-6l-8 7h-2l-2 4-3 1-1 3-6 5-5 5-4 3-3-1 9-11 5-6h2l2-4h2l2-4 6-7 1-5-8-9-22-22v-2h-2v-2h-2l-3-4v-2h-2l-4-4v-3l-9 2-7 6h-2v2l-4 1-1-2 10-13 1-3-2-7 5 1v2l5-2 5-4 4-6h2l2-4 33-33-1-7-20-20-7-8-2-4h-2v-2h-2z" fill="#E97E67"/>
<path transform="translate(1372,123)" d="m0 0h102l1 2-3 30-7 49-3 13-8 11-10 5-11 1-46-4-9-3-8-5-6-8-1-2v-14l7-61z" fill="#9EA8CA"/>
<path transform="translate(557,123)" d="m0 0h101l2 8 5 44 2 18v19l-5 8-7 6-7 3-25 3-12 1h-24l-10-5-6-7-4-10-4-25-4-29-3-31z" fill="#9EA8CA"/>
<path transform="translate(1374,943)" d="m0 0 5 1v2l-6 4-7 8-3 8v14l6 63 8 96 2 27 4 52 2 25 2 31 5 74 4 81 2 65 1 96 3 46 5 38 5 28 9 39 10 36 8 25 5 15 16 42 13 30 1 7-5-2-6-9-7-17-5-11-2-6-5-12-3-9-5-13-3-10-3-8-6-18-3-12-2-4-2-9-2-5-2-10-2-6-3-14-2-9-3-13-2-15-2-8-1-20-3-9-1-14v-9l-2-10-2-30v-47l-1-32-1-16v-54l-2-10-1-31-1-13v-25l-3-19v-41l1-4-3-11-2-13v-23l1-10v-9l-4-8-1-11v-23l-3-15-3-37-2-25-1-18-2-16-2-30-2-28-1-15-2-9v-20l4-13 9-11 3-3z" fill="#38526D"/>
<path transform="translate(1272,980)" d="m0 0h3v2l-9 6-7 8-5 10-5 23-9 50-7 39-8 44-8 43-9 49-7 38-6 33-8 43-11 62-10 54-16 92-2 21v35l3 25 5 24 7 24 13 32 19 47 15 37 16 39 15 37 11 26 2 7-5-1-6-8-5-13-3-5-6-16-5-12-4-9-4-11-4-9-4-11-4-9-4-10-4-9-3-8-6-14-6-16-6-14-6-16-2-3-3-9-4-9-8-22-5-17-3-16-1-6-1-19-2-7v-20l2-15 1-19 2-12 1-3 2-17 2-5 1-13 3-10 1-14 3-10 2-16 2-7 1-13 3-11 1-13 3-11 1-12 3-14 1-10 2-5 3-21 2-8 1-9 3-12 2-12 2-9 2-13 2-9 2-15 2-7 1-12 2-6 3-18 2-6 1-13 3-10 2-15 2-8 1-9 3-10 2-14 2-8 2-16 2-6 1-12 3-10 2-16 2-5 1-13 3-8 1-13 3-6 1-14 3-5 2-10 5-8 9-11z" fill="#2A556E"/>
<path transform="translate(641,936)" d="m0 0 6 2 2 1v2h4l4 5-10-2-4-1h-9l-10 3-9 7-8 16-7 20-15 42-7 21-14 41-23 69-7 22-9 27-5 17-7 22-12 40-8 27-10 36-8 31-6 24-8 38-3 19-1 15v25l1 26 4 48 3 25 3 26 3 24 8 57 8 53 11 70 10 54 4 9 2 3-1 3-3-1-1-3-2-2-4-8v-2h-2l-2-6-2-12-2-5-3-19-3-20-2-8-2-16-2-9-2-19-2-8-2-18-2-8-2-17-2-10-3-23-1-5-1-15-3-14-1-17-3-14-1-18-2-9-1-9-1-23-2-6-1-13v-81l2-12 1-2 2-16 2-5 1-11 3-6 1-11 3-7 1-10 3-6 1-10 3-6 1-9 3-6 2-12 2-3 1-9 3-5 2-12 2-3 2-10 2-3 2-11 2-2 1-9 2-4h2v-9l3-5 1-8 3-4 2-11 2-2 2-10 2-2 1-9 2-4h2v-8l3-4 2-10 2-2 2-11 3-9 3-7 2-9 6-14 2-9 2-3 2-9 3-9 3-7 6-20 3-9 3-6 3-10 5-14 2-7 2-3 2-8 6-15 5-15 4-11 5-13 1-2h2l2-6 5-5 4-3 10-2 7-1 1-3z" fill="#2B546E"/>
<path transform="translate(1531,865)" d="m0 0 8 1 5 5v2l2 1 5 5 3 2v2h2l7 8 6 7 5 5 4 2v2l9 3-1 4-9 7-5 5-4 6-7 6-7 8-14 14-5 3-7-2-2-4-3-1-7-8-10-9-7-6-2-3-3-1-6-7-5-5 1-6 16-16 1-2h2l2-4h2v-2h2v-2h2l1-3 8-7z" fill="#FA8565"/>
<path transform="translate(673,1210)" d="m0 0h4l1 105 2 86 2 49 4 71 5 62 2 24 2 23 4 40 4 38 4 36 8 66 6 44 8 54v12l-4-4-1-2v-12l-2-4-2-1-1-4-1-20-3-7-1-19-3-9-1-19-3-11-1-18-3-13-1-21-2-5-1-6-1-22-2-7-1-7-1-21-3-15-1-25-2-5-1-8-1-33-3-9-1-20v-19l-2-7-2-16-1-13v-31l-3-17-2-26v-34l-2-14-1-17v-35l-1-25v-51l2-31v-12l1-11z" fill="#37526D"/>
<path transform="translate(565,807)" d="m0 0h2l-1 5-9 10-3 5h-2l-2 4h-2l-2 4h-2l-2 4h-2l-2 5-10 10-2 7h2l4 6 10 9 3 2 1 3 3 2v2l4 2 7 6 5 5v2l4 1 6 6 5-2h3l-2 7-3 8-7 1-1 3h-2l-1 3-6 4-2 3h-2l-2 4-7 6-7 8-5 5-9 11-1 5v3l4 2 5 6 4 3v2h2l7 8 3 3 1 4h-4l-3-3v-2l-4-2-2-4-4-2v-2h-2l-4-4v-2h-2v-2h-2v-2l-9-2v2h-3v2l-5 2v2h-2v2l-8 7-9 9-1 2h-2v2h-2l-2 4h-2l-2 4h-2l-1 3h-2v3l-4 4 1 7 4 2 4 4v2l4 2 3 3v2l4 2 8 7v2h2v2h2l4 4v2h2v2l4 2 1 3 4 2h5l7-6h3l1 3-2 5h-2l-1 7-6 5-8 4h-2v2l-10 7-3 3-4 2 2-5 3-1 1-4h2l1-5 6-5 2-6-5-5-5-4-7-8-1-3-3-1-3-3-2-1v-3l-4-1-6-7-2-1v-3h-2v-2h-2v-2h-2l-1-4-9 1v2l-4 2-5 5-5 3h-2l2-5 10-12 1-4-2-4v-3l4-1 7 2 3-3h3l2-4 3-4h2l2-4 4-4h3v-3l4-1v-3l7-6 5-5 6-7h2l1-7-4-5v-2l-4-2-1-3-4-2-19-19-1-4h-2l-2-5-2-1 2-2v2l2 1 7 5v2h3v2h2v2l4 2 5 4 5 5v2l4 2v2h2l6 7 5 2 6-3 7-8 6-5 6-7 5-5h2l1-3h2l1-4h3l1-4 4-4h3l1-4 1-5-6-7-11-9-5-6-7-6-2-4h-2v-2h-2v-2h-2l-7-8-6-2-5 2v2h-2v2l-8 7-30 30-3 4-2 7-9 3-6 5-1 2h-3l-1 3-3 1v-4l3-5 7-8 1-7 7-2 4-4h2v-2l7-6 6-7 3-3h2l2-4 12-12h2l2-4 5-5-1-8-2-1v-2h-2v-2h-2l-7-8-4-4v-2h-2v-2h-2l-1-5 5 1 2 4 4 2 10 9 6 5v2l5 1 6-4h2l2-4 26-26 8-7z" fill="#E97E67"/>
<path transform="translate(826,998)" d="m0 0 2 1-3 13v17l12 50 12 60 11 64 12 81 5 38 4 30 5 43 6 48 1 22-5-4v-4-11l-2-4-3-3-2-23-3-16v-15l-3-10-1-19-1-8-3-10-1-17-3-14-1-15-3-14-1-6v-8l-2-6-2-19-2-7-3-23-1-2-2-17-4-27-2-6-2-16-3-13-2-11-2-13-3-10-6-30-2-5-5-25 2-27z" fill="#28556F"/>
<path transform="translate(1060,950)" d="m0 0h1l2 13 1 1 6 69 6 64 6 70 3 30 5 58 5 52 4 46 4 42 2 22 1 24 1 7v10l-2-3-2-12-1-4h-2l-1-3-1-23-2-7-1-8-1-28-3-13-1-33-2-5-1-10-1-29-2-5-1-8-1-29-2-6-1-11-1-25-3-20-1-28-2-5-1-9-1-31-2-5-1-12-1-28-2-6-1-10-1-29-3-12-1-45z" fill="#2A556E"/>
<path transform="translate(454,1487)" d="m0 0h1l2 18 1 26 4 48 3 25 3 26 3 24 8 57 8 53 11 70 10 54 4 9 2 3-1 3-3-1-1-3-2-2-4-8v-2h-2l-2-6-2-12-2-5-3-19-3-20-2-8-2-16-2-9-2-19-2-8-2-18-2-8-2-17-2-10-3-23-1-5-1-15-3-14-1-17-3-14-1-18-2-9-1-47-2-3-1-7v-45z" fill="#29556F"/>
<path transform="translate(1145,1628)" d="m0 0 1 4h2l3 25 5 24 7 24 13 32 19 47 15 37 16 39 15 37 11 26 2 7-5-1-6-8-5-13-3-5-6-16-5-12-4-9-4-11-4-9-4-11-4-9-4-10-4-9-3-8-6-14-6-16-6-14-6-16-2-3-3-9-4-9-8-22-5-17v-20h-2l-1-4v-20z" fill="#29556F"/>
<path transform="translate(689,1588)" d="m0 0 3 4 2 31 5 47 4 38 4 36 8 66 6 44 8 54v12l-4-4-1-2v-12l-2-4-2-1-1-4-1-20-3-7-1-19-3-9-1-19-3-11-1-18-3-13-1-21-2-5-1-6-1-22-2-7-1-7-1-21-3-15-1-25-2-5-1-8v-14z" fill="#2A556E"/>
<path transform="translate(1397,1603)" d="m0 0 2 2 1 4 2 27 5 38 5 28 9 39 10 36 8 25 5 15 16 42 13 30 1 7-5-2-6-9-7-17-5-11-2-6-5-12-3-9-5-13-3-10-3-8-6-18-3-12-2-4-2-9-2-5-2-10-2-6-3-14-2-9-3-13-2-15-2-8-1-20-3-9v-13z" fill="#2A556F"/>
<path transform="translate(529,1178)" d="m0 0 1 3-2 9-1 4h-2l-2 12h-2l-1 11-3 7-2 10h-2l-1 7-1 5-2 1-2 10-3 9-1 4h-2v2l2 1-2 2-1 7h-2l1 4h-2l-2 15v3l1 3-7 24-7 25-13 52-8 38-3 19-2 32h-1l-1-7-1 5v45l1 7 2 3v38h-1l-1-23-2-6-1-13v-81l2-12 1-2 2-16 2-5 1-11 3-6 1-11 3-7 1-10 3-6 1-10 3-6 1-9 3-6 2-12 2-3 1-9 3-5 2-12 2-3 2-10 2-3 2-11 2-2 1-9 2-4h2v-9l3-5 1-8 3-4 2-11 2-2 2-10 2-2 1-9 2-4h2v-8l3-4 2-10z" fill="#37526D"/>
<path transform="translate(739,974)" d="m0 0 9 2v1h-22v2l-12 5-6 4-4 2-2 4-5 9-3 13-5 42-4 46-3 44-1 22-1 3-2 31-2 2-1-1v-7l-1-4-1-19 2-52 2-14 2-40 2-8 2-17 1-13 2-4 2-15 4-13 7-10 6-7 5-3 12-2 8-2z" fill="#38526D"/>
<path transform="translate(855,1224)" d="m0 0 2 4h2l1 17 2 6 2 4v14l3 8 1 1v24h2l2 4 1-6h1l3 22 4 30 5 43 6 48 1 22-5-4v-4-11l-2-4-3-3-2-23-3-16v-15l-3-10-1-19-1-8-3-10-1-17-3-14-1-15-3-14-1-6v-8l-2-6-2-19-2-7z" fill="#38526D"/>
<path transform="translate(1174,1396)" d="m0 0h1v10l-2 7-1 13-3 11-2 16-2 9-3 24h-2v4h2l2 2-1 10-10 56-4 25-1 14-1 35-2 3v24h2l1 6-1 6h-1l-3-14-1-19-2-7v-20l2-15 1-19 2-12 1-3 2-17 2-5 1-13 3-10 1-14 3-10 2-16 2-7 1-13 3-11 1-13 3-11 1-12z" fill="#39526C"/>
<path transform="translate(1374,943)" d="m0 0 5 1v2l-6 4-7 8-3 8v14l6 63v24h-2l-1-7h-2v-5h-2l-1-2-2-19-2-34-2-9v-20l4-13 9-11 3-3z" fill="#37526D"/>
<path transform="translate(1080,1223)" d="m0 0 1 3h2l1 3 1 34 3 7 1 35 3 7 1 35 3 4 1-7h1l3 31 3 28 2 38 1 7v10l-2-3-2-12-1-4h-2l-1-3-1-23-2-7-1-8-1-28-3-13-1-33-2-5-1-10-1-29-2-5-1-8-1-29-2-6z" fill="#37526D"/>
<path transform="translate(1272,980)" d="m0 0h3v2l-9 6-7 8-5 10-5 23-3 16-2-4-3 5-1 9-2 8-1 1-1 12-3 11-2 14-2 7-2 17-2 6-2 13-2 8-2 15-2 7-2 15-2 6-2 15-2 6-2 16-3 11h-1v-9l3-10 1-13 3-10 2-15 2-8 1-9 3-10 2-14 2-8 2-16 2-6 1-12 3-10 2-16 2-5 1-13 3-8 1-13 3-6 1-14 3-5 2-10 5-8 9-11z" fill="#37526D"/>
<path transform="translate(875,1356)" d="m0 0 2 4 3 8 1-5h1l3 22 7 58 1 22-5-4v-4-11l-2-4-3-3-2-23-3-16v-15l-3-10-1-18z" fill="#38526D"/>
<path transform="translate(1060,950)" d="m0 0h1l2 13 1 1 3 35v8l-2-4v36l3 6 1 38 1 5 2 1 1 43 3 9 1 31 1 4 2 1v12l-1 7h-1l-3-20-1-28-2-5-1-9-1-31-2-5-1-12-1-28-2-6-1-10-1-29-3-12-1-45z" fill="#37536E"/>
<path transform="translate(539,721)" d="m0 0 2 4-6 8-2 4h-2v2l-4 2-4 10-9 1v2l-7 6h-2v2l-8 7-3 1v2h-2v2h-3l-1 3-4 1v3l-8 8-2-1 2-4 4-2v-2l6-5 2-3h2v-3l8-7 6-8h2v-2h2l2-5 4-8 5-1 3-1v-2h2v-2h2v-2h2v-2h2v-2z" fill="#E97E67"/>
<path transform="translate(1544,731)" d="m0 0 4 1-4 8-1 8h2l8 10 4 4-1 5-7-3-7-6-3-3v-2h-3v-2l-7 1-5 6-6 3 1-6 6-6 2-8-3-5 3-1 9 2 3-4z" fill="#E97E67"/>
<path transform="translate(716,1825)" d="m0 0h1l10 71 2 12v12l-4-4-1-2v-12l-2-4-2-1-1-4-1-20-3-7-1-19-3-9v-5h2l2 4z" fill="#38526C"/>
<path transform="translate(492,1107)" d="m0 0 2 1-6 8-1 2h-2l-2 4-8 9h-2l-2 5-4 8-9 3-4 3h-2v2l-3 2-2 1 1-6h2l1-4 3-7-1-7 7 2 5-2 20-18z" fill="#E97E67"/>
<path transform="translate(1080,1223)" d="m0 0 1 3h2l1 3 1 34 3 7 1 35 3 7 1 35 3 4 1-7h1l1 16h-1l-1 8-1 19h-1l-1-17-3-13-1-33-2-5-1-10-1-29-2-5-1-8-1-29-2-6z" fill="#37536E"/>
<path transform="translate(826,998)" d="m0 0 2 1-3 13v17l2 12-2-2v-3h-2l1 2 1 17h2l2 16 2 2v14h-1l-3-11-2-12-2-5-5-25 2-27z" fill="#36536E"/>
<path transform="translate(491,1835)" d="m0 0 2 4 3 7v7l2 6h2l2-3 6 32 4 9 2 3-1 3-3-1-1-3-2-2-4-8v-2h-2l-2-6-2-12-2-5-3-19z" fill="#39526C"/>
<path transform="translate(1456,797)" d="m0 0h1v7l-10 40-4 17-2 9h-2v5h-1v-9l2-16 4-11 1-6 3-9 4-13 2-10z" fill="#37536E"/>
<path transform="translate(855,1224)" d="m0 0 2 4h2l1 17 2 6 2 4v14l3 8 1 1v20l-2 2-2-11-3-17v-8l-2-6-2-19-2-7z" fill="#37536E"/>
<path transform="translate(921,942)" d="m0 0 3 1-4 1v2l-16 8-17 8-25 11h-6l4-3 13-6 9-5 9-2v-2l4-1 9-5 4-1 10-5z" fill="#3A526C"/>
<path transform="translate(448,817)" d="m0 0h1l-1 10-3 14-3 13-2 12-2 8-2 13-2 3-1-4 2-10 1-9 1-11 2-4 2-14 3-7 1-9z" fill="#37536E"/>
<path transform="translate(1060,950)" d="m0 0h1l2 13 1 1v35l-2-2-1-9h-2l-1-32z" fill="#38526D"/>
<path transform="translate(707,1791)" d="m0 0h1l1 14 1 3 2 1 1-6h1l2 13v23l-3-3v-3h-2l-1-14-3-11z" fill="#39526C"/>
<path transform="translate(641,936)" d="m0 0 6 2 2 1v2h4l4 5-10-2-4-1h-9l-10 3-5 3-2-2-5 2-2 4v-3l5-5 7-3 6-1 7-1 1-3z" fill="#3A516C"/>
<path transform="translate(1365,1026)" d="m0 0 3 4 1 13v24h-2l-1-7h-2l-1-6 1-27z" fill="#29556F"/>
<path transform="translate(1115,945)" d="m0 0 7 2 9 4 6 3h2v2l10 3 9 3 6 3v2l2 1-2 1-18-8-7-1-4-2v-2l-6-2-13-7z" fill="#3C516B"/>
<path transform="translate(1064,977)" d="m0 0h1l2 22v8l-2-4-1 36h-1l-1-26-3-12v-13h2l2 9z" fill="#3A526C"/>
<path transform="translate(1361,984)" d="m0 0 2 4 2 13v21l-4-1-2-10z" fill="#27556F"/>
<path transform="translate(1174,1396)" d="m0 0h1v10l-2 7-1 13-3 11-2 16-2 9-3 24h-2l-1 4v-9l3-11 1-13 3-11 1-13 3-11 1-12z" fill="#37536E"/>
<path transform="translate(451,1495)" d="m0 0h1l1 45 1 7 2 3v38h-1l-1-23-2-6-1-13z" fill="#37536E"/>
<path transform="translate(1097,1344)" d="m0 0h1l1 16h-1l-1 8-1 19h-1l-1-17-3-13v-10l3 1 2 3z" fill="#39526C"/>
<path transform="translate(1395,1464)" d="m0 0h1l1 22v37l-2 3-1-10v-43z" fill="#235771"/>
<path transform="translate(875,1356)" d="m0 0 2 4 3 8 1-5h1l1 12h-1l-2 14-2-4-3-10-1-18z" fill="#38526D"/>
<path transform="translate(527,753)" d="m0 0 5 2 1 3h2v2l4 2 5 4 10 13-1 2-6-4-5-5-2-4-3-1v-2l-4-2-1-4-3-1-2-4z" fill="#E97E67"/>
<path transform="translate(1097,1357)" d="m0 0 2 3 1 2v33l-2-2-2-6v-19z" fill="#27556F"/>
<path transform="translate(1369,1072)" d="m0 0 2 4 1 3 1 13v19h-2l-2-13-1-7z" fill="#2B546E"/>
<path transform="translate(868,1279)" d="m0 0h2l2 5 1 8v15l-3-3v-2h-2l-1-7z" fill="#27556F"/>
<path transform="translate(739,974)" d="m0 0 9 2v1h-22v2l-12 5-4 1-5-1 5-5 12-2 8-2z" fill="#3A516B"/>
<path transform="translate(699,1725)" d="m0 0h1l1 19 3 6 1 24 3 6v9l-2 1-3-13-1-21-2-5-1-6z" fill="#37536E"/>
<path transform="translate(826,998)" d="m0 0 2 1-3 13-1 16-2-4-3-3 1-14z" fill="#3A516C"/>
<path transform="translate(881,1372)" d="m0 0 3 4 1 9v16h-2l-3-9v-9z" fill="#2A556F"/>
<path transform="translate(877,1340)" d="m0 0 1 3h2l1 9v17l-3-3-2-6v-10z" fill="#29556F"/>
<path transform="translate(872,1308)" d="m0 0h2l2 4 1 10v15l-3-3-2-5z" fill="#29556F"/>
<path transform="translate(716,1825)" d="m0 0h1l2 14v6l-2 2-1 13h-1l-1-13-3-9v-5h2l2 4z" fill="#3A516C"/>
<path transform="translate(1061,967)" d="m0 0h2l1 8v24l-2-2-2-9v-12z" fill="#235670"/>
<path transform="translate(713,1812)" d="m0 0 1 4h2v23l-3-3-1-3v-18z" fill="#27556F"/>
<path transform="translate(1395,1636)" d="m0 0h1l1 7 3 1 1-8h1l1 13-2 3-1 6-3-4-2-7z" fill="#39526C"/>
<path transform="translate(1272,980)" d="m0 0h3v2l-9 6-6 5h-2l-3-1 8-9z" fill="#39526C"/>
<path transform="translate(687,1622)" d="m0 0h1l2 10 2 4v22h-1l-1-10-2-5-1-8z" fill="#37536E"/>
<path transform="translate(686,1549)" d="m0 0h1l2 10v20l-2 2-2-13z" fill="#2A556E"/>
<path transform="translate(1142,957)" d="m0 0 11 3 10 4 1 3 2 1-2 1-18-8-4-1z" fill="#37536E"/>
<path transform="translate(1186,1331)" d="m0 0h1v9l-3 13-2 12-2 10h-1v-10l3-13 1-9z" fill="#37536E"/>
<path transform="translate(1092,933)" d="m0 0 13 4 4 2v2l5 2-1 3-17-8-4-3z" fill="#37536E"/>
<path transform="translate(717,1843)" d="m0 0 1 2h2v20l-3-3-1-2v-13z" fill="#28556F"/>
<path transform="translate(705,984)" d="m0 0h5l-2 4-4 2-2 4-4 7-2-3 2-6z" fill="#2D546E"/>
<path transform="translate(1437,877)" d="m0 0h1l-1 23-1-2h-2l-1-6 1-11z" fill="#37536E"/>
<path transform="translate(1374,943)" d="m0 0 5 1v2l-6 4-5 4v-2l-4 1 4-6 3-3z" fill="#39526C"/>
<path transform="translate(1396,1486)" d="m0 0h1v37l-2 3-1-10v-7l1-1z" fill="#2C556F"/>
<path transform="translate(622,942)" d="m0 0 7 1-3 2-7 4-2-2-5 2-2 4v-3l5-5z" fill="#37526C"/>
<path transform="translate(921,942)" d="m0 0 3 1-4 1v2l-13 7-3-1 4-1 2-4 8-4z" fill="#3D516A"/>
<path transform="translate(874,963)" d="m0 0m-1 1m-1 1h6l-2 2-14 6h-6l4-3z" fill="#3C516B"/>
<path transform="translate(847,1172)" d="m0 0 3 4 1 2v18h-1l-3-17z" fill="#37536E"/>
<path transform="translate(1479,718)" d="m0 0h2l-2 10-3 9-2 5-1-4 1-5z" fill="#37536E"/>
<path transform="translate(459,1615)" d="m0 0h1l2 9 2 5-1 9-2-4-2-10z" fill="#37536E"/>
<path transform="translate(851,1197)" d="m0 0h1l2 7 1 1v18h-1l-2-14-1-2z" fill="#37536E"/>
<path transform="translate(1159,1501)" d="m0 0h2v13l-3 2-1-9z" fill="#2A556F"/>
<path transform="translate(467,1669)" d="m0 0h1l1 14 2 5v14h-1l-3-18z" fill="#37536E"/>
<path transform="translate(456,1588)" d="m0 0 1 4h2l1 6v9l-2-1-2-9z" fill="#37536E"/>
<path transform="translate(886,1415)" d="m0 0 3 3v15h-2l-1-6z" fill="#2D546E"/>
<path transform="translate(739,974)" d="m0 0 9 2v1l-26 1 3-2z" fill="#37536E"/>
<path transform="translate(463,1648)" d="m0 0h1l3 9 1 2v7l-2 3-3-14z" fill="#37536E"/>
<path transform="translate(491,1835)" d="m0 0 2 4 3 7v12l-2-2-3-15z" fill="#37536E"/>
<path transform="translate(843,1150)" d="m0 0 4 4v17h-1l-2-11-1-3z" fill="#37536E"/>
<path transform="translate(1115,945)" d="m0 0 7 2 9 4 1 3-5-1-11-6z" fill="#37536E"/>
<path transform="translate(691,1665)" d="m0 0h1l2 9 2 6-1 8-2-4-2-11z" fill="#37536E"/>
<path transform="translate(695,1698)" d="m0 0h1l2 14 1 1v10l-2-2-2-12z" fill="#37536E"/>
<path transform="translate(886,958)" d="m0 0m-4 1 4 1-3 4-10 2 4-4z" fill="#38526C"/>
<path transform="translate(835,1107)" d="m0 0 2 4 2 2v15h-1l-2-11-1-3z" fill="#37536E"/>
<path transform="translate(1202,1243)" d="m0 0h1v9l-3 14h-1v-12l2-6z" fill="#37536E"/>
<path transform="translate(837,984)" d="m0 0h2l-2 4-4 6-3-1 3-6z" fill="#3B516B"/>
<path transform="translate(471,1707)" d="m0 0 4 8v13h-1l-3-16z" fill="#37536E"/>
<path transform="translate(487,1811)" d="m0 0h1l3 9v13h-1l-3-16z" fill="#37536E"/>
<path transform="translate(1198,1266)" d="m0 0h1v8l-3 14h-1v-10z" fill="#37536E"/>
<path transform="translate(839,1130)" d="m0 0 4 4v15h-1l-3-16z" fill="#37536E"/>
<path transform="translate(1178,1375)" d="m0 0h1v9l-3 11h-1v-9l2-5z" fill="#37536E"/>
<path transform="translate(1593,1245)" d="m0 0 3 1-1 5h-2v3h-2l-1-7h3z" fill="#E97E67"/>
<path transform="translate(831,1088)" d="m0 0 4 5v11h-1l-3-10z" fill="#37536E"/>
<path transform="translate(1247,1020)" d="m0 0h1v11l-2 5h-1v-8z" fill="#245670"/>
<path transform="translate(479,1759)" d="m0 0h1l3 9v12h-1l-3-15z" fill="#37536E"/>
<path transform="translate(475,1733)" d="m0 0h1l2 7 1 1v11h-1l-3-13z" fill="#37536E"/>
<path transform="translate(822,1028)" d="m0 0 3 1 2 12-2-2v-3l-3-1z" fill="#35526B"/>
<path transform="translate(891,955)" d="m0 0h2l1 4-7 3-3-1 4-4h3z" fill="#3C516B"/>
<path transform="translate(1474,1893)" d="m0 0 4 4 2 3-1 3-5-4z" fill="#3D506A"/>
<path transform="translate(509,1894)" d="m0 0 4 5 1 4-4-1-1-3-2-2v-2z" fill="#3B516B"/>
<path transform="translate(501,1864)" d="m0 0 3 3v13h-1l-2-11z" fill="#2B556E"/>
<path transform="translate(1468,756)" d="m0 0h1l-1 9-3 4v-9h2z" fill="#37536E"/>
<path transform="translate(335,1150)" d="m0 0 2 1-6 5 2-4z" fill="#9EA8CA"/>
<path transform="translate(324,1162)" d="m0 0 1 2-2-1z" fill="#9EA8CA"/>
<path transform="translate(328,1158)" d="m0 0 1 2-2-1z" fill="#9EA8CA"/>
<path transform="translate(329,1156)" d="m0 0 2 1-2 1z" fill="#818AA8"/>
<path transform="translate(337,1148)" d="m0 0 2 1-2 1z" fill="#9EA8CA"/>
<path transform="translate(1547,192)" d="m0 0 2 2h-2z" fill="#9EA8CA"/>
<path transform="translate(322,1164)" d="m0 0" fill="#9EA8CA"/>
<path transform="translate(325,1161)" d="m0 0" fill="#9EA8CA"/>
<path transform="translate(326,1160)" d="m0 0" fill="#9EA8CA"/>
<path transform="translate(339,1147)" d="m0 0" fill="#9EA8CA"/>
<path transform="translate(500,308)" d="m0 0" fill="#9EA8CA"/>
<path transform="translate(501,307)" d="m0 0" fill="#9EA8CA"/>
<path transform="translate(1563,208)" d="m0 0" fill="#9EA8CA"/>
<path transform="translate(1561,206)" d="m0 0" fill="#9EA8CA"/>
<path transform="translate(1559,204)" d="m0 0" fill="#9EA8CA"/>
<path transform="translate(1557,202)" d="m0 0" fill="#9EA8CA"/>
<path transform="translate(1555,200)" d="m0 0" fill="#9EA8CA"/>
<path transform="translate(1553,198)" d="m0 0" fill="#9EA8CA"/>
<path transform="translate(1552,197)" d="m0 0" fill="#9EA8CA"/>
<path transform="translate(1551,196)" d="m0 0" fill="#9EA8CA"/>
<path transform="translate(1550,195)" d="m0 0" fill="#9EA8CA"/>
<path transform="translate(1549,194)" d="m0 0" fill="#9EA8CA"/>
<path transform="translate(1545,190)" d="m0 0" fill="#9EA8CA"/>
<path transform="translate(1544,189)" d="m0 0" fill="#9EA8CA"/>
<path transform="translate(1543,188)" d="m0 0" fill="#9EA8CA"/>
</svg>
