<?xml version="1.0" encoding="UTF-8"?>
<svg version="1.1" viewBox="0 0 2048 2048" width="512" height="512" xmlns="http://www.w3.org/2000/svg">
<path transform="translate(527,39)" d="m0 0h983l10 3 8 6 7 9 3 9v21l-3 202-2 139v36l9 19 8 16 9 19 18 42 15 39 13 36 12 36 12 39 10 36 12 49 9 41 9 47 9 59 7 64 3 44 2 49v85l-2 57-3 51-4 54-7 71-8 67-8 59-9 59-10 63-17 96-9 49-14 78-8 49-4 38-6 12-9 8-8 3-8 1-214 1h-150l-10-3-9-8-9-14-13-25-8-16-15-33-12-30-13-36-12-36-12-40-11-41-13-54-12-57-12-66-10-62-2-14-6 41-11 66-11 58-6 27-8 34-6 25-13 49-13 42-12 36-12 32-12 29-12 27-14 29-10 18-8 12-8 6-10 4h-144l-223-1-12-3-10-9-5-8-2-6-4-38-13-78-17-92-16-92-9-54-12-80-7-51-6-50-7-64-5-60-5-77-1-26-1-44v-58l2-55 3-43 5-48 4-33 8-50 11-57 13-56 12-45 14-47 12-36 11-31 11-29 12-29 12-28 15-33 10-19 3-8-2-128v-27l-2-1 1-1v-20l-2-119v-103l5-10 7-7z" fill="#484F67"/>
<path transform="translate(1377,535)" d="m0 0h11l12 5 6 5 7 12 9 23 19 52 12 33 10 30 14 41 14 45 15 53 9 35 10 43 6 33 5 38 3 34 2 42v104l-3 45-4 36-4 24-6 27-9 31-12 37-10 29-8 24-9 30-5 20-5 18-7 21-8 15h-2l-2 4-6 7-6 4-17 9-15 4h-18l-16-4-12-6-11-8-7-7-10-15-6-14-7-21-8-27-15-60-9-44-7-40-5-37-4-35-4-44-2-38-1-44v-32l2-42 3-47 4-38 4-32 8-49 8-40 10-43 11-46 5-24 10-43 24-104 4-12 6-8 5-4 9-4z" fill="#F7004D"/>
<path transform="translate(658,535)" d="m0 0h8l11 4 10 9 5 13 9 38 24 104 7 31 8 34 14 63 7 37 5 30 4 28 6 54 4 70 1 27v38l-2 48-2 37-5 52-6 44-7 43-9 43-11 44-8 30-9 30-6 16-7 14-8 10-11 10-15 8-16 4h-18l-15-4-9-4-10-6-10-9-7-8-6-10-5-13-10-37-8-28-13-41-8-21-12-37-9-32-6-26-5-30-3-22-4-56v-113l2-33 3-36 7-46 9-43 12-48 6-22 10-35 12-39 10-31 18-52 8-23 9-24 7-20 8-21 8-20 6-12 7-6 11-4z" fill="#F7004D"/>
<path transform="translate(820,1175)" d="m0 0 7 1 5 10 17 52 10 34 10 40 8 37 7 41 5 37 4 43 2 42v51l-2 44-5 55-11 106-4 24-6 18-6 12-9 12-9 10-11 9-11 7-13 6-18 6-13 2h-22l-20-5-13-5-14-7-13-10-12-12-11-16-7-16-5-18-2-10v-24l7-42 8-32 9-26 10-23 11-21 11-18 13-18 12-18 9-15 11-24 10-27 10-33 9-37 8-43 5-37 4-36 3-34 4-85 2-4z" fill="#F78365"/>
<path transform="translate(1213,1176)" d="m0 0h8l5 5 1 14 2 50 2 34 5 52 4 30 4 26 8 40 10 39 10 30 11 26 11 23 16 24 13 18 13 21 12 23 10 24 7 21 8 34 5 28 2 15v26l-3 15-8 20-9 15-8 10-16 14-15 9-17 7-14 4-9 1h-22l-21-5-19-8-14-9-11-9-10-11-8-13-6-12-5-17-4-25-10-99-5-53-2-34-1-24v-38l2-45 5-54 7-48 9-46 12-48 12-40 17-51 3-7z" fill="#F78365"/>
<path transform="translate(1062,71)" d="m0 0h99l12 2 14 7 10 10 7 13 2 11v108l-1 27-5 54-6 40-7 35-11 44-11 36-10 28-11 27-10 23-13 27-8 16-17 33-10 19-7 11-6 5-7 3-8-1-8-5v-2h-2l-4-7-1-4-1-316 1-165v-60l3-9 7-7z" fill="#9DA7C8"/>
<path transform="translate(875,71)" d="m0 0h101l8 2 6 4 4 6 1 3 1 396-1 152-5 8-6 5-8 3-9-2-8-7-7-11-6-12-10-19-21-41-12-25-15-35-6-16-14-41-11-40-9-40-4-21-5-35-4-40-2-35v-118l3-12 7-11 9-9 10-6 6-2z" fill="#9DA7C8"/>
<path transform="translate(1231,640)" d="m0 0h8l8 5 3 6-1 16-4 40-8 82-3 30-3 35-13 136-4 40-3 15-8 27-21 68-20 64-12 39-15 48-8 25-6 17-2 3-6-1-3-7-3-33-10-140-3-41-2-32-5-64-3-47-4-49-1-14v-27l5-24 6-16 8-16 12-18 28-40 10-14 16-23 13-18 16-23 12-17 10-14 9-12z" fill="#9DA7C8"/>
<path transform="translate(799,640)" d="m0 0h9l7 6 10 14 13 18 14 20 12 17 11 16 13 18 11 16 36 51 10 17 7 15 5 17 3 22v12l-7 93-5 76-4 52-7 97-2 27-5 70-2 18-4 4-5-1-6-14-12-39-9-29-14-44-9-30-10-31-13-42-12-39-7-25-4-28-6-62-9-94-8-84-6-65-5-49v-9l4-7z" fill="#9DA7C8"/>
<path transform="translate(1603,907)" d="m0 0 7 1 4 5 4 14 8 44 5 38 4 40 3 49 1 24v118l-4 79-3 43-5 46-6 42-6 33-8 37-10 39-11 35-13 36-11 25-9 20-10 19-8 14-11 18-11 16-9 12h-2l-1 3-11 6-7 2-10-1-10-4-9-8-5-12-4-38-1-15v-27l2-17 5-21 10-28 18-36 15-33 12-28 14-34 20-50 11-34 10-38 7-31 4-20 5-31 3-20 5-43 4-44 2-27 2-49 1-56v-107l4-4z" fill="#F78365"/>
<path transform="translate(454,901)" d="m0 0 7 1 6 4 1 2-1 24-3 47-2 53v111l3 57 3 39 5 42 3 21 4 24 7 34 5 20 6 21 12 36 21 58 7 18 12 30 15 35 11 27 5 17 4 25v42l-6 47-4 11-3 5h-2v2l-11 7-13 2-10-2-8-5-5-4-7-10-16-26-17-33-14-31-13-36-11-36-8-30-8-37-8-48-5-41-4-47-2-34-1-47v-75l1-43 3-57 5-57 5-41 6-39 8-39 8-32 3-7 4-4z" fill="#F78365"/>
<path transform="translate(1405,78)" d="m0 0h11l10 3 9 5 9 8 6 10 3 10 3 35v37l-4 24-6 20-8 19-12 21-10 13-14 17-9 10-9 11-12 14-11 12-9 11-10 11-9 11-13 15-11 13-7 8-9 10-7 8-8 5h-11l-9-6-4-8v-28l2-34 3-32 5-28 7-28 12-36 10-24 8-17 12-22 14-22 10-14 12-16 11-13 1-2h2l2-4 15-16 10-7 8-3z" fill="#9DA7C8"/>
<path transform="translate(625,78)" d="m0 0h10l10 3 9 5 10 9 10 10 18 22 16 21 12 19 9 15 15 29 10 24 7 19 9 29 7 33 5 35 2 32 1 39-2 6-4 6-8 5-8 1-6-3-10-9-13-15-12-14-13-15-9-10-9-11-13-15-12-14-9-10-9-11-13-15-10-12-10-13-12-19-9-20-7-23-4-23-1-13 1-27 3-33 4-13 6-9 7-7 10-5z" fill="#9DA7C8"/>
<path transform="translate(1456,280)" d="m0 0h6l5 4 1 112 2 22 5 21 7 20 14 36 13 34 19 50 13 34 15 40 9 23 8 21 12 36 8 31 5 28 3 28v36l-3 8-5 3-7-1-5-5-15-43-19-51-14-36-11-27-15-37-9-21-10-24-23-54-19-43-14-32-16-35-16-36-7-17-2-9v-11l3-14 7-14 7-10 13-19 11-16 14-20 8-11z" fill="#9DA7C8"/>
<path transform="translate(590,279)" d="m0 0 5 2 6 7 16 23 22 32 12 18 5 11 3 15-2 16-7 19-12 26-15 33-19 43-12 27-14 33-15 35-6 15-6 13-12 29-15 37-9 22-13 34-11 29-13 36-7 21-3 8h-2l-1 3-7 1-6-3-3-6v-40l2-21 6-34 8-30 8-25 10-28 9-23 15-40 15-39 13-34 9-24 14-36 10-26 9-27 4-21 1-18v-92l1-16 5-4z" fill="#9DA7C8"/>
<path transform="translate(640,537)" d="m0 0 3 2-3 1-1 4-6 9-8 19-6 16-9 25-9 24-10 29-14 40-12 37-15 48-9 32-9 34-7 28-8 36-4 21-7 48-3 39-1 22v113l4 56 5 35 6 31 10 37 8 26 8 23 7 20 14 43 17 62 5 11 6 10 9 10 9 7 11 6 7 3 13 3 4 3h-11l-22-5-12-8-7-7-10-13-4-6-4-7-3-9-5-16-3-13-4-15-4-14-6-20-6-18-3-11-2-3-7-21-5-13-3-10-4-13-5-17-7-28-3-16-3-13-1-13-3-17-2-22-2-33-1-27v-76l2-55 3-23 2-16 2-9 1-13 3-9 1-13 3-7 1-12 3-6 1-13 3-5 1-10 3-5 1-11 3-6 2-11 2-5 1-8 3-7 2-9 2-4 2-10 2-5 2-9 2-3 2-10 2-3 2-10 2-5 2-8 2-5 2-7 2-5 2-8 2-4 2-8 4-11 2-4 2-7 2-4 2-8 2-2 2-10 1-2h2v-7l3-5 3-10 4-12 4-10 2-7 3-5 2-9 2-2 3-9h2l1-9 2-2 3-9 4-10 4-9h2l1-4 5-4z" fill="#38536C"/>
<path transform="translate(1369,535)" d="m0 0 4 1h-2v2l-9 5-5 6-4 8-4 14-8 36-8 34-6 27-6 26-8 35-6 26-14 61-7 33-5 28-7 43-5 43-3 32-3 50-1 30v29l1 44 3 51 5 50 4 31 5 33 6 35 11 51 10 39 11 38 7 21 8 16 9 12 10 9 10 6 13 5v2l9 1 5 1v1h-11l-1-1-19-3-8-5v-2l-6-2-7-7-4-5v-2h-2l-8-12-2-5-4-9-2-3-3-11-5-15-2-9-3-10-3-9-6-26-6-22-3-14-4-19-5-24-2-16-2-7-3-22-2-12-1-13-2-10-2-25-2-11-4-50-2-59v-31l2-56 3-25 1-26 3-16 2-22 2-10 1-16 3-11 1-13 3-10 1-13 3-7 1-12 3-7 1-13 3-5 1-12 3-7 1-11 3-5 1-12 3-6 2-12 2-5 2-14 2-4 2-13 2-4 2-13 2-4 2-13 2-5 2-12 2-4 1-11 3-8 2-12 2-4 2-13 2-4 2-12 2-4 3-16 2-6 2-8 2-3 1-8 8-11 1-2z" fill="#38536C"/>
<path transform="translate(838,310)" d="m0 0 3 1 4 29 6 31 10 42 11 37 11 32 10 25 13 30 14 29 18 35 10 19 8 15 1 3h-2l-3-5v-2h-2l-6-10-2-5-8-16v-2h-2l-2-6-3-5-1-3-2-1-2-6-2-1v-5l-4-2-3-7-2-5-4-6-2-5-5-10-5-11-4-8v-5l-3-4-3-8-2-2v-9l-3-1-2-7-3-6-1-4-3-6v-5l-4-7v-5l-4-7-1-10-3-8-1-8-2-6-1-9h-2l-2-9 1-4h-2l-3-5v-7l1-1-5-13v-9h-1l-3-14v-10l-1-5z" fill="#3E4762"/>
<path transform="translate(789,1406)" d="m0 0h1l-1 11-12 48-12 36-10 24-8 16-10 17-24 34-7 11-6 11-13 27-8 21-8 24h-2v-7l4-11 4-13 3-9v-2l2-1 2-8 2-1 2-9 2-1 2-7 2-1 3-7h2l1-6 3-4 1-3 2-1 6-11h3l1-5 8-10 2-1 2-5 3-3 1-3 3-2 1-4 3-3 1-3h2l3-9 5-10 3-7 2-7 1-4h3l1-7 2-3 2-11h2v-6l2-6h2v-6l3-9h2l1-12 1-4h2l1-12 3-8 2-12 3-3z" fill="#3E4762"/>
<path transform="translate(818,648)" d="m0 0 5 5 6 7 4 7 8 10 9 13 12 17 7 9 4 7 9 13 12 16 16 23 7 10 15 22 7 10 6 9 5 10 5 11 2 5 2 11v6l-1-4h-2l-5-17-9-19-10-16-13-18-13-19-13-18-13-19-11-15-11-16-12-17-14-20-8-11-6-9z" fill="#3F4863"/>
<path transform="translate(808,1230)" d="m0 0h1v37l-5 54-6 46-6 35-2 4-2-3v-8l2-7 2-4-2-1 4-27 2-13v-8l4-24v-11l2-10 1-18h2l-1-5 1-17 2-12z" fill="#3F4863"/>
<path transform="translate(1226,641)" d="m0 0h2l-2 4-8 10-24 34-14 20-12 17-13 18-9 13-42 60-9 15-3 7-3 1 2-8h2l3-9 2-4 2-2 2-1 2-5 6-9 12-16 6-10 7-9 3-5 8-11 6-8 4-7 7-9 1-3h2l2-5 12-16 6-9 8-11 7-10 5-8 6-8 6-7 4-6z" fill="#3F4762"/>
<path transform="translate(1198,1205)" d="m0 0h1v7l-14 43-12 44-8 35-7 36-3 19-4-3 1-10 4-22 1-7 1-5 3-12 3-14v-5l2-1 3-15 2-7 4-11 1-8h2l2-12h2l1-6 4-16 7-20z" fill="#3E4762"/>
<path transform="translate(1601,1540)" d="m0 0h2l1 7-2 6h-2v8l-2 7-3 9-1 4h-2l-1 10-1 2h-2v6l-1 4h-2l-2 7-4 13h-2l-2 10-6 12-2 7-7 14-6 13-8 15-3 5-4 8-5 8-5 7h-2l2-6 9-15 10-18 11-23 9-20 6-16 11-30 8-25z" fill="#3E4762"/>
<path transform="translate(1196,1096)" d="m0 0 1 4-12 40-4 13-3 8-12 39-6 18-5 17-3 7h-1l1-9 16-51 20-64 6-20z" fill="#404863"/>
<path transform="translate(1529,1429)" d="m0 0h4l-1 7-11 27-10 25-3 1-4 12h-4l1-4 3-10 3-5 2-5 2-4 2-7 5-10 3-9 4-9 3-1 1-5z" fill="#3A526B"/>
<path transform="translate(832,1064)" d="m0 0 1 3h2l10 33 9 29 13 41v5l-3-2-3-10-3-8-3-7 1-5h-2l-3-6-2-9-2-10-3-5-2-11-4-16-2-3-4-14z" fill="#3F4763"/>
<path transform="translate(1272,1494)" d="m0 0 2 1 7 19 4 8 6 13 1 4h2l3 7 4 5 2 5 7 6 5 10 5 5 4 8 4 5 3 6 2 2 3 7 3 5 4 8-1 2-5-8-9-16-14-20-12-17-11-18-11-23-8-20z" fill="#3F4863"/>
<path transform="translate(676,347)" d="m0 0 4 2 13 15 12 14 9 10 9 11 10 11 9 11 7 8-1 2-10-10-4-5-3-3v-2h-2l-4-6-5-6-6-5-3-2v-2h-2l-11-14-7-9-3-3v-2l-4-2-8-10z" fill="#3F4763"/>
<path transform="translate(1374,332)" d="m0 0 2 1-6 7-1 3-4 5-7 8-5 5h-2l-2 4h-2l-2 6-7 9h-2l-2 4-6 5-5 6h-2l-1 3-3 5h-2l-1 4h-3l-1 4h-2l1-4 12-14 13-15 11-13 13-15 12-14z" fill="#3F4863"/>
<path transform="translate(1198,1205)" d="m0 0h1v7l-14 43-7 25-3-4 1-7h2l2-12h2l1-6 4-16 7-20z" fill="#3F4863"/>
<path transform="translate(428,1524)" d="m0 0h2l3 3 7 31 3 11 1 10-3-1-2-7v-5h-2l-3-15-3-9v-8l-2-1z" fill="#3F4863"/>
<path transform="translate(884,1231)" d="m0 0h2l10 32 15 49v5l-2-3-5-13-6-22-3-8-8-26-3-8z" fill="#414963"/>
<path transform="translate(668,1687)" d="m0 0h1v9l-5 25-3 18-3 1-1-4 2-9 2-16 2-10 4-10z" fill="#3F4863"/>
<path transform="translate(1551,1365)" d="m0 0h3l-2 14-8 25-2-3h-2l1-7 2-2 1-9 4-6v-6l2-2z" fill="#3A536B"/>
<path transform="translate(1150,1244)" d="m0 0 1 3-8 26-3 9-5 16-5 15h-1l1-9 12-39 6-18z" fill="#404863"/>
<path transform="translate(808,1230)" d="m0 0h1v37l-1 2-2 13-3 2v-12h2l-1-5 1-17 2-12z" fill="#3E4662"/>
<path transform="translate(869,1802)" d="m0 0 3 1-3 9-5 11h-2l-2 6-7 8-7 7-8 6-2-1 12-11 10-13 6-10z" fill="#3E4762"/>
<path transform="translate(927,585)" d="m0 0h3l10 19 8 16 8 15 1 3h-2l-3-5v-2h-2l-6-10-2-5-8-16v-2h-2l-2-6-3-5z" fill="#404863"/>
<path transform="translate(1487,1531)" d="m0 0 2 3-1 6-6 13-3 3h-2v5l-4 3v-4l4-9 5-10 4-9z" fill="#38536C"/>
<path transform="translate(1212,1043)" d="m0 0 1 3-3 12-6 19-3 11-2 6h-2l1-9 11-36 1-4h2z" fill="#414963"/>
<path transform="translate(1542,1399)" d="m0 0h1v8l-8 21-2 2-3-2 6-18 3-4 1-5h2z" fill="#3F4863"/>
<path transform="translate(702,1527)" d="m0 0 1 2-4 6-7 5-13 6-8 1 1-3 16-8 6-2z" fill="#38546C"/>
<path transform="translate(1499,1503)" d="m0 0h1v7l-2 3-2 10-2 4-5 4-1-6 3-5 2-7z" fill="#38526C"/>
<path transform="translate(737,195)" d="m0 0 3 3 3 6v2l2 1 7 15 1 6 2 1-1 2h2v6l-2-3v-2h-2l-11-25-4-8z" fill="#404863"/>
<path transform="translate(625,322)" d="m0 0h2l6 8 4 6 4 5 4 7 4 5 4 7-1 2-4-4-10-15-11-16z" fill="#414963"/>
<path transform="translate(1367,1816)" d="m0 0h2l-1 5-8 12-3 4h-2l-1 3-8 7-9 7v-3l11-9 2-3h2l2-4 9-12z" fill="#3F4863"/>
<path transform="translate(1512,1475)" d="m0 0h1v7l-3 7h-2l-4 12h-4l1-4 3-10 5-9z" fill="#37536C"/>
<path transform="translate(1480,1553)" d="m0 0 1 2-11 23-2 4-4 3-1-5 2-3h2v-5l4-5 1-4 4-2 1-5h2z" fill="#404863"/>
<path transform="translate(1527,1723)" d="m0 0 1 2-9 13-4 6h-2l-2 4-2 3h-2l-1 4-5 4h-2v-2l5-4 8-11 9-13 5-5z" fill="#3E4762"/>
<path transform="translate(698,133)" d="m0 0 5 5 6 8v2h2l6 9 4 7v3l3 1-1 3-4-4-10-16-11-15z" fill="#404863"/>
<path transform="translate(855,1834)" d="m0 0 1 3-3 4h-2l-2 4-8 6h-2v2l-9 5v-3l2-1 2-4 7-3 13-12z" fill="#36546D"/>
<path transform="translate(1423,322)" d="m0 0 1 3-13 19-8 12h-2l1-4 1-2h2l2-6h2l2-5 4-7h2l2-5z" fill="#414963"/>
<path transform="translate(1152,1388)" d="m0 0 2 1-1 15-2 7-2 3-2-3 1-3 1-13z" fill="#3F4762"/>
<path transform="translate(832,1064)" d="m0 0 1 3h2l9 29v3l-3-1-3-12-2-3-4-14z" fill="#404963"/>
<path transform="translate(490,1699)" d="m0 0h2l14 26 2 2v4h-2l-5-9-1-4-3-1-3-7v-3l-2-1v-3h-2z" fill="#3F4762"/>
<path transform="translate(1177,414)" d="m0 0h2l-1 9-5 17-3 8-2 3 1-9 7-23z" fill="#404963"/>
<path transform="translate(1161,1211)" d="m0 0 1 2-8 24-2 5h-1l1-9 6-19z" fill="#3F4863"/>
<path transform="translate(1236,1327)" d="m0 0h2l1 2v10l1 6v9h-2l-2-16z" fill="#404863"/>
<path transform="translate(1440,297)" d="m0 0 1 3-8 12-5 7-3 1 2-5h2l1-5 7-10z" fill="#404963"/>
<path transform="translate(792,1387)" d="m0 0h1v10l-2 9-3-3v-8l2-6z" fill="#3E4762"/>
<path transform="translate(901,1289)" d="m0 0h3l7 23v5l-2-3-5-13z" fill="#404863"/>
<path transform="translate(1508,1489)" d="m0 0 1 3-11 26h-1v-5l2-3v-8l5-1v-6h2l1-4z" fill="#414964"/>
<path transform="translate(1391,312)" d="m0 0 3 1-5 7-5 4-1 3-3 1-3 3 1-4 11-13z" fill="#404963"/>
<path transform="translate(1323,391)" d="m0 0 2 1-2 3h-2l-1 3-3 5h-2l-1 4h-3l-1 4h-2l1-4 12-14z" fill="#404963"/>
<path transform="translate(1565,1304)" d="m0 0 4 1-1 10-2 8h-1l-1-13z" fill="#414963"/>
<path transform="translate(465,1648)" d="m0 0 5 4 5 11v5l-4-5-2-5h-2l-1-7z" fill="#3F4863"/>
<path transform="translate(848,1233)" d="m0 0 3 4 2 9 3 9-1 4-3-8-4-13z" fill="#404863"/>
<path transform="translate(1154,487)" d="m0 0 1 4-6 15-3 7h-1l1-7 7-18z" fill="#404863"/>
<path transform="translate(1601,1540)" d="m0 0h2l1 7-2 6-4 2 2-11z" fill="#3F4863"/>
<path transform="translate(746,1532)" d="m0 0 1 3-3 5-2 5h-2l-1 5-4 2 1-4 6-9 3-6z" fill="#36556E"/>
<path transform="translate(595,648)" d="m0 0 1 4-9 25h-1v-6l5-12z" fill="#424A64"/>
<path transform="translate(641,344)" d="m0 0 5 5 3 4 4 7-1 2-4-4-7-11z" fill="#3F4863"/>
<path transform="translate(1564,1323)" d="m0 0h1l-1 10-2 8-2-3v-11h3z" fill="#414964"/>
<path transform="translate(456,1621)" d="m0 0 4 4 2 10 2 6-3-2v-3h-2l-2-9-1-1z" fill="#3E4762"/>
<path transform="translate(1234,1297)" d="m0 0 2 4v15l-3-4v-13z" fill="#3F4762"/>
<path transform="translate(1512,1742)" d="m0 0 1 4-4 5h-2l-1 4-5 4h-2v-2l5-4z" fill="#414963"/>
<path transform="translate(1193,1222)" d="m0 0h2l-3 11-2 6-2-4 3-10z" fill="#414964"/>
<path transform="translate(1162,463)" d="m0 0h2l-2 9-5 13h-1l1-7z" fill="#404863"/>
<path transform="translate(1576,1623)" d="m0 0 1 2-2 8-5 5-1-2 5-12z" fill="#3F4863"/>
<path transform="translate(1374,332)" d="m0 0 2 1-6 7-1 3-4 2-5 4 2-4z" fill="#424A64"/>
<path transform="translate(1241,1359)" d="m0 0 2 4 1 15-3-2z" fill="#3E4762"/>
<path transform="translate(1444,1641)" d="m0 0h1v8l-2 5-2-1 1-10z" fill="#36556E"/>
<path transform="translate(787,1400)" d="m0 0 2 3 1 3-2 4h-2l-1 5h-1v-8z" fill="#36556E"/>
<path transform="translate(1551,1365)" d="m0 0h3l-1 7-3 5-2-1v-5l2-2z" fill="#36546D"/>
<path transform="translate(1559,1336)" d="m0 0 2 2-1 7-1 2-3-1 1-8z" fill="#36556E"/>
<path transform="translate(1142,515)" d="m0 0h2l-2 8-5 10-2 1 3-9z" fill="#404963"/>
<path transform="translate(1305,412)" d="m0 0h2l-1 3h-2l-1 4-8 7-3 2 2-4z" fill="#414963"/>
<path transform="translate(1312,174)" d="m0 0 1 4-5 9-3 1 2-6z" fill="#404963"/>
<path transform="translate(1348,1630)" d="m0 0 3 3 5 12-1 2-3-4-4-9z" fill="#414963"/>
<path transform="translate(1605,1524)" d="m0 0h2l1 5-3 8h-2l1-8z" fill="#404863"/>
<path transform="translate(1555,1351)" d="m0 0h2v6l-2 4h-3v-6z" fill="#36556E"/>
<path transform="translate(953,628)" d="m0 0 5 5 3 5-1 3-4-5-4-7z" fill="#C5BDC4"/>
<path transform="translate(1204,1853)" d="m0 0 5 1 5 3-1 3-7-3z" fill="#3F4863"/>
<path transform="translate(1373,1802)" d="m0 0 3 1-1 4-5 8-1-3z" fill="#404863"/>
<path transform="translate(490,1699)" d="m0 0h2l6 11v2l-4-2v-3l-2-1v-3h-2z" fill="#414964"/>
<path transform="translate(832,1852)" d="m0 0v3l-2 1-1 3-4 2h-4v-2z" fill="#3D4F69"/>
<path transform="translate(672,1674)" d="m0 0h1l-1 10-1 2h-2v-7z" fill="#3E4762"/>
<path transform="translate(1378,1788)" d="m0 0 2 2-1 8-3 1 1-10z" fill="#3F4763"/>
<path transform="translate(1540,1700)" d="m0 0 1 3-3 5-5 3 2-5 3-5z" fill="#3F4863"/>
<path transform="translate(1491,1522)" d="m0 0 3 1-3 7-2 1-1-6z" fill="#36556E"/>
<path transform="translate(1147,1414)" d="m0 0 2 1v15l-3-4z" fill="#3D4662"/>
<path transform="translate(879,1215)" d="m0 0h2l3 9v6l-2-3-3-8z" fill="#414964"/>
<path transform="translate(705,1857)" d="m0 0 7 1 6 4-4 1-8-4z" fill="#3E4762"/>
<path transform="translate(679,1541)" d="m0 0 3 1-3 4-8 1 1-3z" fill="#3E526A"/>
<path transform="translate(1188,1235)" d="m0 0h1v7l-2 5h-2l1-8z" fill="#3E4662"/>
<path transform="translate(660,1728)" d="m0 0h1v11l-3 1-1-4z" fill="#3E4762"/>
<path transform="translate(1556,1357)" d="m0 0 1 4-3 10-1-4 1-2-2-1v-3h3z" fill="#424A64"/>
<path transform="translate(1560,1342)" d="m0 0 1 4-3 11h-1l-1-11 3 1z" fill="#434B64"/>
<path transform="translate(734,1552)" d="m0 0 2 1-2 4h-2l-1 4-4 3 2-5z" fill="#36556E"/>
<path transform="translate(1249,1407)" d="m0 0 2 2 1 13-2-3-1-2z" fill="#3E4762"/>
<path transform="translate(1201,1082)" d="m0 0 1 2-3 10h-2l1-9z" fill="#3F4762"/>
<path transform="translate(328,1158)" d="m0 0v3l-4 4-2-1z" fill="#9DA8C9"/>
<path transform="translate(335,1150)" d="m0 0 2 1-6 5 2-4z" fill="#ADA1B6"/>
<path transform="translate(1695,1243)" d="m0 0 3 1h-3z" fill="#9DA8C9"/>
<path transform="translate(499,276)" d="m0 0 2 1-1 2z" fill="#9DA8C9"/>
<path transform="translate(329,1156)" d="m0 0 2 1-2 1z" fill="#BB9BA7"/>
<path transform="translate(337,1148)" d="m0 0 2 1-2 1z" fill="#9DA8C9"/>
<path transform="translate(1557,268)" d="m0 0 2 1-2 1z" fill="#9DA8C9"/>
<path transform="translate(1547,192)" d="m0 0 2 2h-2z" fill="#9DA8C9"/>
<path transform="translate(347,1252)" d="m0 0 2 1z" fill="#9DA8C9"/>
<path transform="translate(1694,1242)" d="m0 0" fill="#9DA8C9"/>
<path transform="translate(339,1147)" d="m0 0" fill="#9DA8C9"/>
<path transform="translate(489,320)" d="m0 0" fill="#9DA8C9"/>
<path transform="translate(490,319)" d="m0 0" fill="#9DA8C9"/>
<path transform="translate(499,309)" d="m0 0" fill="#9DA8C9"/>
<path transform="translate(500,308)" d="m0 0" fill="#F78365"/>
<path transform="translate(501,307)" d="m0 0" fill="#F78365"/>
<path transform="translate(497,273)" d="m0 0" fill="#9DA8C9"/>
<path transform="translate(1553,272)" d="m0 0" fill="#9DA8C9"/>
<path transform="translate(496,272)" d="m0 0" fill="#9DA8C9"/>
<path transform="translate(1559,267)" d="m0 0" fill="#9DA8C9"/>
<path transform="translate(1562,264)" d="m0 0" fill="#9DA8C9"/>
<path transform="translate(1567,212)" d="m0 0" fill="#9DA8C9"/>
<path transform="translate(1563,208)" d="m0 0" fill="#9DA8C9"/>
<path transform="translate(1562,207)" d="m0 0" fill="#9DA8C9"/>
<path transform="translate(1561,206)" d="m0 0" fill="#9DA8C9"/>
<path transform="translate(1560,205)" d="m0 0" fill="#9DA8C9"/>
<path transform="translate(1559,204)" d="m0 0" fill="#9DA8C9"/>
<path transform="translate(1558,203)" d="m0 0" fill="#9DA8C9"/>
<path transform="translate(1557,202)" d="m0 0" fill="#9DA8C9"/>
<path transform="translate(1556,201)" d="m0 0" fill="#9DA8C9"/>
<path transform="translate(1555,200)" d="m0 0" fill="#9DA8C9"/>
<path transform="translate(1554,199)" d="m0 0" fill="#9DA8C9"/>
<path transform="translate(1553,198)" d="m0 0" fill="#9DA8C9"/>
<path transform="translate(1552,197)" d="m0 0" fill="#9DA8C9"/>
<path transform="translate(1551,196)" d="m0 0" fill="#9DA8C9"/>
<path transform="translate(1550,195)" d="m0 0" fill="#9DA8C9"/>
<path transform="translate(1549,194)" d="m0 0" fill="#9DA8C9"/>
<path transform="translate(1546,191)" d="m0 0" fill="#9DA8C9"/>
<path transform="translate(1545,190)" d="m0 0" fill="#9DA8C9"/>
<path transform="translate(1544,189)" d="m0 0" fill="#9DA8C9"/>
<path transform="translate(1543,188)" d="m0 0" fill="#9DA8C9"/>
</svg>
