<?xml version="1.0" encoding="UTF-8"?>
<svg version="1.1" viewBox="0 0 2048 2048" width="512" height="512" xmlns="http://www.w3.org/2000/svg">
<path transform="translate(841,149)" d="m0 0 9 1 15 6 36 17 24 11 25 10 21 6 22 4 21 2h15l22-2 26-5 20-6 24-10 43-19 25-11 9-3 6-1 12 2 9 5 7 8 4 8 1 5 1 94 5 3 38 19 23 11 75 36 17 9 23 11 39 19 17 8 48 24 28 13 27 11 24 10 25 12 21 11 17 10 14 9 22 15 17 13 13 11 10 9 3 2v2l4 2 16 16 9 11 9 10 13 18 12 19 8 14 9 20 9 24 11 39 7 37 3 20 3 35 1 21v47l-4 51-5 36-8 42v6l11 10 8 7 16 16 7 8 9 11 14 18 15 23 10 17 15 29 10 23 13 38 8 31 7 36 5 39 1 14v26l-5 12-12 22-16 29-15 28-24 44-16 29-13 24-10 18-13 24-10 18-8 14-6 11-12 23-13 23-16 30-24 44-4 6h-2l-2 4-12 6-3 1h-12l-10-4-8-7-6-8-10-18-16-32-11-26-10-28-7-22-8-30-7-36-4-29-2-24v-45l-10-14-28-36-11-14-10-13-2-1-6 10-12 17-9 12-14 18-9 13-8 14-8 19-6 20-3 14-1 9v37l6 40 15 91 11 67 4 24v17l-5 10-6 7-10 5-21 5-207 42-111 22-32 5-42 5-52 4h-64l-39-2-40-4-37-5-42-8-103-21-184-38-21-5-10-6-6-7-4-9-1-11 7-44 20-122 9-55 1-11v-30l-3-21-5-19-8-20-10-19-10-14-14-18-14-19-11-17v-2h-3l-8 11-11 14-13 17-10 13-11 14-5 7-1 40-3 39-5 32-8 36-8 28-10 30-11 27-11 24-11 21-7 8-12 6-11 1-13-4-9-8-11-17-19-32-10-16-27-45-28-46-15-25-16-26-14-23-15-25-17-28-12-20-34-56-9-16-2-7 1-28 4-37 6-35 9-37 12-36 8-20 12-26 13-23 10-16 11-16 13-17 12-14 11-12 17-17 10-8h2l-8-42-5-34-4-39-2-38v-24l2-33 4-38 6-35 9-36 8-25 11-27 11-21 14-22 14-18 9-11 14-15 15-15 8-7 13-11 16-12 18-13 19-12 19-11 18-10 29-14 26-11 21-8 37-18 23-11 21-10 16-8 41-20 24-12 23-11 86-42 23-11 21-10 2-2 1-96 4-10 7-8 10-6z" fill="#484F68"/>
<path transform="translate(1283,542)" d="m0 0h25l20 4 24 8 22 10 18 10 20 13 15 11 13 10 14 12 13 12 22 22 18 22 13 18 10 18 7 19 6 20 9 21 13 26 10 17 13 20 11 16 8 12 1 3v8l-4 8-7 6-29 7-24 8-17 8-21 13-16 13-22 22-8 10-12 14-11 10-13 9-15 8-18 6-16 3h-16l-20-6-38-13-43-14-53-18-36-12-32-10-39-10-16-8-6-4-10-9-7-10-7-14-4-17v-201l4-17 7-13 11-12 10-7 28-16 28-15 22-11 34-15 30-11 27-8 19-4z" fill="#9DA8CA"/>
<path transform="translate(740,542)" d="m0 0h25l25 4 26 7 32 11 28 12 35 17 27 14 21 12 16 10 12 11 7 11 5 15 1 6v200l-3 16-5 12-7 11-10 11-14 9-12 5-26 7-32 9-40 13-41 14-54 18-41 14-25 8h-18l-18-4-17-6-15-8-12-9-18-18-8-10-12-14-9-9-11-9-12-9-18-11-23-11-21-7-24-5-6-3-5-5-3-6v-9l5-9 11-16 15-23 13-22 11-21 10-25 11-33 12-23 12-17 8-10 11-13 15-16 9-9 8-7 10-9 10-8 17-13 10-7 19-12 27-14 25-10 18-5z" fill="#9CA7C9"/>
<path transform="translate(482,494)" d="m0 0h48l36 5 32 7 19 6 21 7 24 9 14 7v4l-22 5-17 6-23 11-14 9-14 10-11 9-12 11-21 21-9 11-11 13-12 17-10 15-10 16-13 24-10 21-10 26-12 36-8 17-15 24-10 13-8 10-12 14-1 2h-2l-2 4-16 17-31 31-8 7-14 13-10 8-14 12-16 13-13 10-4-1-2-10-6-39-4-33-4-52-1-42 1-44 4-36 5-26 6-24 9-27 9-20 8-16 8-14 10-14 9-11 11-12 8-8 11-9 16-12 19-12 27-14 26-12 17-6 21-5z" fill="#F4004F"/>
<path transform="translate(1532,493)" d="m0 0 31 1 27 4 19 6 13 5 25 12 19 10 15 9 12 8 14 11 14 13 2 1v2h2v2h2l7 8 10 12 9 13 11 18 11 23 9 24 7 25 7 35 3 26 2 46v30l-1 31-3 37-5 44-5 32-2 13-4 1-14-11-13-11-14-11-12-11-11-9-16-15-39-39-7-8-12-14-18-24-10-15-10-17-7-16-12-36-7-18-11-24-10-19-14-23-11-16-13-18-9-10-9-11-14-15-15-14-11-9-13-10-18-11-21-10-21-7-19-4-2-1 1-4 20-8 37-13 23-7 26-6 23-4 16-2z" fill="#F4004F"/>
<path transform="translate(1649,928)" d="m0 0 5 1 15 12 20 15 18 13 14 10 20 14 21 14 14 10 4 4 36 90 18 46 20 50 10 26 5 20 3 21v35l-9 81-6 50-2 16-3 10-6 9-9 7-8 3h-16l-13-7-14-12-13-12-9-9-7-8-13-16-10-13-14-21-14-23-9-16-10-19-13-28-16-38-8-21-13-40-7-22-10-36-9-37-3-16v-124l4-13 7-10 7-7 11-6z" fill="#9DA8CA"/>
<path transform="translate(395,928)" d="m0 0 10 1 13 5 9 7 9 13 4 11v126l-6 29-11 42-11 36-14 43-16 41-10 22-11 24-15 29-8 13-9 15-14 21-9 12-7 9-11 13-12 13-11 11-11 9-9 7-8 4-3 1h-15l-9-4-8-6-4-5-4-9-5-39-5-42-6-50-2-20v-36l3-20 4-17 8-23 19-47 22-56 22-55 8-21 7-16 17-12 23-16 19-13 18-13 14-10 13-10 14-11z" fill="#9DA8CA"/>
<path transform="translate(1067,976)" d="m0 0 8 1 50 16 32 11 31 10 36 12 37 13 43 14 26 6 10 6 6 8 3 8 1 6v11l-3 17-6 20-8 19-11 20-12 19-10 13-9 10-8 8-11 7-7 1-42-19-28-11-33-11-49-12-41-9-11-4-6-4-5-6-3-5-1-6v-38l1-111 5-10 8-7z" fill="#9DA8CA"/>
<path transform="translate(970,977)" d="m0 0h11l8 4 7 8 3 7v154l-4 8-5 5-5 3-16 5-73 17-25 7-23 8-36 15-30 13-6 1-9-5-12-11-9-11-8-11-11-18-10-18-7-15-8-24-3-12-1-7v-14l4-13 6-8 5-4 11-4 17-4 49-16 65-22 72-24z" fill="#9DA8CA"/>
<path transform="translate(963,1441)" d="m0 0 18 1 8 4 8 9 3 7v229l-4 8-7 8-8 4-7 1h-99l-13-2-12-6-10-9-6-10-3-13-1-59v-127l2-12 7-14 7-8 11-7 10-3z" fill="#9CA7C9"/>
<path transform="translate(1067,1442)" d="m0 0h114l12 4 11 8 6 7 6 12 1 4 1 13-1 184-4 13-9 12-11 8-11 4-9 1h-101l-10-3-10-9-3-6-1-4v-228l5-9 8-8z" fill="#9DA8CA"/>
<path transform="translate(967,1208)" d="m0 0h17l8 5 6 7 2 4v162l-5 10-7 6-10 3h-135l-15-2-9-5-9-8-10-15-13-26-4-13v-18l3-12 7-14 11-12 13-11 24-16 17-10 27-13 24-9 24-7z" fill="#9DA8CA"/>
<path transform="translate(1063,1208)" d="m0 0h16l25 4 25 6 18 6 24 10 16 8 18 10 18 12 16 12 10 9 8 10 6 13 2 9v19l-5 16-12 22-9 14-6 7-9 6-11 3-10 1h-129l-13-2-8-6-4-8-1-5v-159l6-10 7-6z" fill="#9DA8CA"/>
<path transform="translate(802,334)" d="m0 0 15 1 9 4 8 6 6 8 4 9 9 33 11 32 11 26 13 27 2 6v12l-3 7-4 6-9 8-5 2-8 1-16-2-52-10-34-6-54-10-56-10-44-8-14-3-8-4-5-6-1-3v-11l4-7 10-6 27-14 38-19 23-11 48-24 23-11 22-11 23-10z" fill="#9DA8CA"/>
<path transform="translate(1236,334)" d="m0 0h11l11 4 34 16 58 29 23 11 46 23 23 11 22 12 6 7 1 2v11l-5 8-5 4-16 4-18 3-32 6-79 14-120 22-13 1-8-3-6-4-7-8-3-5-1-4v-10l3-10 8-16 11-25 9-24 10-32 6-22 6-11 9-8 8-4z" fill="#9DA8CA"/>
<path transform="translate(1422,1319)" d="m0 0 6 2 4 4v128l-4 24-7 21-8 16-10 15-13 15-7 7-11 9-11 10-11 9-10 9-11 9-6 4-7-1-3-3-1-5v-85l1-21 3-18 5-18 8-19 8-15 10-14 9-11 10-11 9-11 12-13 7-8 10-11 14-16z" fill="#9DA8CA"/>
<path transform="translate(624,1319)" d="m0 0 5 2 12 12 7 8 9 10 9 11 14 15 7 8 11 13 11 15 8 14 7 15 6 18 4 19 2 23v59l-1 36-5 4-3 1-9-6-42-36-10-9-2-1v-2l-4-2-12-13-10-14-11-21-7-21-3-16-1-10v-125l4-5z" fill="#9DA8CA"/>
<path transform="translate(1169,238)" d="m0 0 7 1 3 3 2 9 1 12v26l-3 26-4 23-7 27-9 27-8 20-11 25-9 19-12 22-12 21-13 22-14 21-12 17-7 6-9 3-9-1-8-5v-2l-3-1-3-7v-13l21-64 14-43 18-55 12-36 9-19 10-15 9-12 11-14 16-21 11-14 5-6z" fill="#9DA8CA"/>
<path transform="translate(875,238)" d="m0 0h5l5 5 7 8 11 14 13 17 14 18 10 14 9 16 4 8 12 36 13 40 14 43 24 73 3 10v12l-5 8-6 5-5 2h-12l-8-5-7-8-16-24-14-22-11-19-12-22-12-23-15-33-12-33-8-27-5-24-4-29-1-14v-20l2-19 3-5z" fill="#9DA8CA"/>
<path transform="translate(1414,1568)" d="m0 0h7l7 4 4 6v69l-3 17-6 17-9 16-11 14-14 15-11 11-7 8-9 9-7 8-15 16-7 5-3 1h-8l-6-4-3-5-1-4v-66l2-21 6-20 9-17 9-11 15-15 8-7 9-9 8-7 15-14 8-7 10-8z" fill="#9DA8CA"/>
<path transform="translate(627,1568)" d="m0 0h8l8 6 10 9 8 7 5 4v2l4 2 10 10 8 7 12 11 13 13 10 14 7 16 4 15 2 19v64l-2 9-5 6-4 2h-8l-6-4-22-22-7-8-10-10-7-8-7-7-7-8-7-7-10-13-9-16-5-14-3-15-1-10v-62l3-6 6-5z" fill="#9DA8CA"/>
<path transform="translate(1848,1107)" d="m0 0 6 1 11 9 15 15 11 14 10 15 10 18 8 17 10 27 8 30 6 31 4 35v32l-3 16-5 15-12 25-15 28-5 4-6-1-5-5v-128l-2-38-3-24-6-26-9-27-11-26-12-25-11-21v-6z" fill="#9DA8CA"/>
<path transform="translate(196,1107)" d="m0 0 6 1 4 4-1 7-11 21-11 23-13 32-8 24-5 24-3 24-2 36v129l-4 5-2 1h-6l-5-5-12-22-12-23-6-16-3-13-1-9v-28l3-28 7-41 7-26 9-26 11-24 9-16 11-16 9-11 9-10 11-11z" fill="#9DA8CA"/>
<path transform="translate(1602,1187)" d="m0 0h5l3 4 14 39 14 36 13 31 11 25 11 24 13 28 5 12-2 4-4 2-7-5v-2l-4-2-9-9-9-11-12-17-12-19-8-16-12-25-7-20-4-16-2-14v-43l2-5z" fill="#9DA8CA"/>
<path transform="translate(441,1186)" d="m0 0 6 2 2 5v40l-2 18-6 21-10 25-11 22-9 16-12 18-9 12-12 14-8 8-7 5-4-1-2-5 13-29 15-32 21-49 16-41 10-28 7-19z" fill="#9DA8CA"/>
<path transform="translate(708,547)" d="m0 0h5l-1 2-26 10-24 12-18 11-13 9-19 14-9 8-11 9-7 7-8 7-11 11-7 8-12 14-12 16-11 18-9 19-12 36-10 23-10 19-14 23-10 15-13 19-4 4-1-2 4-7 6-9 3-5 4-7h2v-3h2l2-5 8-14 8-13 5-9 3-7h2l3-9 5-12 5-14 4-9 1-8 2-2 2-9 8-16 8-13 6-9 9-12 8-9 8-10 26-26 5-4h2l1-3 10-8 11-9 11-8 13-9 13-8 16-9 10-5 11-5 7-3z" fill="#3F455E"/>
<path transform="translate(1447,612)" d="m0 0 4 2 10 9 8 7 14 14v2l4 2v2l4 2v2l4 2v2l3 1 4 7 5 6v2h2v2h2l9 13 6 9 8 16 3 7 5 17 3 8 11 28 8 15 10 18 8 14v2h2l3 5v2h2l6 10v2h2l8 14v2l-3-1-13-19-15-23-13-23-13-26-8-21-8-26-8-16-9-15-10-13-13-16-12-13-21-21-8-7-3-2z" fill="#424861"/>
<path transform="translate(923,942)" d="m0 0h6l-2 2-10 3-3 1h-4v2h-5l-3 2-9 1v2l-11 2-7 2-5 2-4 3-5 1-7 3-7 2-21 7-4 2-16 5-7 2-8 3-4 1-14 5-9 2-6 3-6 2-12 3h-3l-1 2-16 4-6 1 1-2 36-12 47-16 87-29 23-7z" fill="#3F455E"/>
<path transform="translate(955,980)" d="m0 0 4 1-10 4-32 10-41 14-104 35-34 11h-8l2-2 16-5 27-9 10-3 22-8 24-8 38-13 13-4 24-8 22-7 17-5z" fill="#3F455E"/>
<path transform="translate(1243,547)" d="m0 0h6v2l-27 8-30 11-27 12-29 14-23 12-24 14-14 8-12 11-7 11-4 7-1-3 5-10 9-12 12-9 20-12 18-10 19-10 26-13 18-8 15-6 12-5 11-4 8-2 5-2 8-2z" fill="#3E455E"/>
<path transform="translate(1090,981)" d="m0 0 9 1 5 2 9 2v2l9 1 5 3 9 2 5 2 8 2v2l8 1 6 3 10 3 24 8 11 3 9 3 16 5v2l10 2 11 4 8 3 9 3 8 2 3 2 9 2 4 2 8 2 17 5v1h-9l-35-11-91-31-28-9-38-13-28-9z" fill="#40465F"/>
<path transform="translate(397,924)" d="m0 0 8 1 10 4v2l7 2 5 3 1 4h2l1 4-6-4-11-7-13-4h-6l-14 11-13 10-16 12-20 14-14 10-19 13-7 5-4-1 11-9 16-11 7-5h2v-2l11-7 15-11 13-10 20-15 10-7z" fill="#40465F"/>
<path transform="translate(493,900)" d="m0 0h6l25 12 16 10 12 9 14 12 10 10 9 11 12 14 15 15 15 10 15 7 12 4v2l-12-2v-2l-9-2-4-3-4-1v-2h-3v-2h-3v-2l-4-2-5-3h-2v-2l-5-5-4-5-5-5-9-10-5-3-8-9v-2l-3-1-4-4v-2h-2v-2h-2v-2h-2v-2h-2v-2h-2l-5-5-5-3v-3l-4-1-9-6-11-6-10-5v-2l-6-1-2-1v-2l-8-1z" fill="#3F455E"/>
<path transform="translate(815,551)" d="m0 0 12 3 3 2 9 3 20 7 12 6 13 5 14 7 19 9 5 3 19 10 14 8 13 8 13 9 7 7 7 10 4 8 1 10h-2l-5-15-8-12-11-10-17-10-23-13-27-14-35-17-27-11-29-10z" fill="#3F455E"/>
<path transform="translate(877,1439)" d="m0 0h71l31 1 8 2 9 8 5 7 1 4v30h-1l-1-28-6-11-8-7-5-2-18-1-96 1-12 4-11 8-7 10-5 10-1-4 6-12 2-3h2v-2h2v-2l13-9 10-3z" fill="#404760"/>
<path transform="translate(1621,1219)" d="m0 0 2 1 2 7 4 7 3 7 6 17 8 18 8 20 5 11 10 23 9 21 2 4v4h-2l-16-34-6-15-6-13-15-36-10-26-4-11z" fill="#3F455E"/>
<path transform="translate(939,1211)" d="m0 0h6l-1 2-19 4-33 11-24 11-21 11-27 18-10 8-10 9-7 9-5 8-1-3 7-12 6-7 8-7 11-9 17-11 11-7 25-13 16-7 10-4 13-4 5-2z" fill="#3E445D"/>
<path transform="translate(1547,901)" d="m0 0h5l-3 3-12 5-8 4-12 7-5 3-15 11h-2v2h-2v2l-8 7-9 9-5 6-8 11-7 6-7 8-5 4-5 6-5 2-6 4-1 2-3 1-2 2-21 9-11 2 1-2 18-6 17-9 13-10 12-11 9-11 11-13 22-22 16-12 15-9 16-8z" fill="#3E445D"/>
<path transform="translate(1537,726)" d="m0 0 3 4 5 16 11 28 8 15 10 18 8 14v2h2l3 5v2h2l6 10v2h2l8 14v2l-3-1-13-19-15-23-13-23-13-26-4-10-4-16-3-10z" fill="#3F455E"/>
<path transform="translate(773,343)" d="m0 0 3 1-10 6-36 18-23 11-48 24-23 11h-5l1-2 32-16 25-12 21-10 17-9 23-11 16-8z" fill="#404760"/>
<path transform="translate(633,1324)" d="m0 0 4 2v2l4 2v2l3 1 5 6 5 5 14 15 12 14 7 8 9 10 10 13 7 10 10 18 2 7h-2v-2h-2l-11-21-10-14-12-14-7-8-9-10-7-8-12-14-12-13-7-8z" fill="#3F455E"/>
<path transform="translate(895,411)" d="m0 0h2l16 35 16 31 9 16 12 20 11 17 10 15 5 7-1 3-10-14-9-14-10-15-6-8-3-7-6-10-8-16-1-3-2-1-5-10-3-3-2-9h-2l-3-8-3-9h-2l-3-8-3-5z" fill="#40465F"/>
<path transform="translate(1412,1325)" d="m0 0 1 3-7 7-9 11-8 8-9 11-12 13-9 11-9 10-12 17-11 21h-2l1-5 9-17 3-5 8-11 11-13 9-11 7-7 7-8 9-10 2-3h2l2-4 9-10z" fill="#3F455E"/>
<path transform="translate(1679,537)" d="m0 0h5v2l4 2 3 1v2l4 2 7 4 5 4h3l1 2h2v2h2v2l4 2 3 6v2l4 1v2h2l2 2v3h2v2h2l3 4v3l3 1 1 4h2l5 6v3l2 1 3 4v3l3 1-1 2h-2l-7-11-9-11-9-10-1-3h-2v-2h-2v-2l-4-2-14-13-12-9-10-7z" fill="#3F455E"/>
<path transform="translate(1645,1230)" d="m0 0h2l10 28 12 29 11 25 10 21 9 17 5 9-1 4-7-13-8-13-11-23-13-29-14-37-5-14z" fill="#40465F"/>
<path transform="translate(1124,943)" d="m0 0 9 1 30 9 40 13 43 15 40 13 12 5-3 1-33-11-11-3-7-3-8-1-1-2-9-3-53-18-13-4h-5l-1-2-30-9z" fill="#40465F"/>
<path transform="translate(1125,1439)" d="m0 0h46l15 2 10 4 9 7 5 5 2 4h2l5 13v10h-1l-2-7-4-11-7-10-9-7-8-4-10-3-109-1v-1z" fill="#3D435C"/>
<path transform="translate(708,1141)" d="m0 0 4 4 10 21 13 22 11 16 9 10 6 7 6 5h-3l-12-11-7-5-3-6-3-3-4-8-4-4-1-4h-2l-2-4-3-4-2-6-2-1-1-5h-2l-2-10h-2l-3-9z" fill="#3F455E"/>
<path transform="translate(1179,1237)" d="m0 0 5 1 27 15 20 14 10 8 4 3v2l4 2v2l4 2v2h2l4 6 5 9 2 9v5h-2l-3-11-7-14-11-12-17-13-15-10-20-12-11-6z" fill="#3F455E"/>
<path transform="translate(1049,883)" d="m0 0 2 1 4 12 8 14 10 11 10 7 15 7 8 3-3 1-12-4-6-1v-2l-5-2v-2h-3v-2l-4-1-1-2-3-1-1-4-3-1-3-3-1-2h-2l-1-4-3-3-1-5-3-6-2-6z" fill="#3E445D"/>
<path transform="translate(851,1201)" d="m0 0h5l-3 2-12 6-3 2-6 2-11 4-8 2-1 2-3-1v2l-16 6h-2v-2l35-15z" fill="#3F455E"/>
<path transform="translate(999,877)" d="m0 0h1v7l-3 10-3 9-5 5-3 7h-3l-1 4h-3v2l-14 10-11 5-9 3-3-1 10-4 16-8 10-8 10-13 7-14z" fill="#40465F"/>
<path transform="translate(683,1609)" d="m0 0 4 2 8 7 3 2v2l4 2 8 8 9 11 7 11 2 4-1 3-2-1-5-10-10-13-18-18-8-7z" fill="#40465F"/>
<path transform="translate(939,1211)" d="m0 0h6l-1 2-19 4-33 11-17 7 2-4 11-5 10-4 13-4 5-2z" fill="#3E455E"/>
<path transform="translate(1547,901)" d="m0 0h5l-3 3-12 5-8 4-12 7-5 3-15 11-2-1 5-5 12-9 21-12z" fill="#3F455E"/>
<path transform="translate(1178,1440)" d="m0 0 11 2 10 5 9 7 4 5v2h2l5 13v10h-1l-2-7-4-11-7-10-9-7-8-4-10-3z" fill="#3F455E"/>
<path transform="translate(902,263)" d="m0 0h2l1 4 3 1 10 13 7 9v2h2l10 14v2h2l3 5-5-2-9-12-14-18-12-16z" fill="#40465F"/>
<path transform="translate(857,962)" d="m0 0h4v3l-7 3-7 2-21 7-3-1 2-3z" fill="#3E445D"/>
<path transform="translate(773,343)" d="m0 0 3 1-10 6-24 12-7 1 4-4 19-9z" fill="#40465F"/>
<path transform="translate(955,980)" d="m0 0 4 1-10 4-32 10-7 2 1-3 7-3 21-6 10-3z" fill="#3F455E"/>
<path transform="translate(967,1441)" d="m0 0h18l8 6 8 10 1 4v30h-1l-1-28-6-11-8-7-5-2-14-1z" fill="#3F455E"/>
<path transform="translate(794,1365)" d="m0 0h2l7 13 9 13 8 7 8 4 4 1v2l-6-1-9-5v-2l-4-2-5-4-1-4h-2l-4-6-3-6-2-2-2-5z" fill="#3F465F"/>
<path transform="translate(770,1041)" d="m0 0m-3 1 5 1-4 2-30 10h-8l2-2 16-5 12-4z" fill="#3F455E"/>
<path transform="translate(1348,1398)" d="m0 0 1 3-9 12-9 16-4 8h-2l1-5 9-17 3-5 7-9z" fill="#3F455E"/>
<path transform="translate(1349,1622)" d="m0 0h2l-2 4-13 13-7 10-8 15h-2l1-5 3-6 7-10 5-7h2v-2h2v-2h2v-2h2v-2h2v-2h2v-2h2z" fill="#414760"/>
<path transform="translate(1447,612)" d="m0 0 4 2 10 9 8 7 14 14-1 2-15-15-5-3-12-11-2-1z" fill="#3E445D"/>
<path transform="translate(863,1441)" d="m0 0m-3 1h3v2l-10 4-10 8-7 11-4 8-1-4 6-12 2-3h2v-2h2v-2l13-9z" fill="#3F455E"/>
<path transform="translate(1244,1278)" d="m0 0 1 2 4 2v2l4 2v2h2l4 6 5 9 2 9v5h-2l-3-11-7-14-10-11z" fill="#40465F"/>
<path transform="translate(872,444)" d="m0 0h2l3 7 9 19 3 8v2h-2l-14-29z" fill="#40465F"/>
<path transform="translate(662,397)" d="m0 0m-1 1h6l-4 3-27 13h-5l1-2 16-8z" fill="#40465F"/>
<path transform="translate(1226,1215)" d="m0 0 6 1 33 15v2l-5-1-15-7-9-3v-2l-9-2z" fill="#40465F"/>
<path transform="translate(708,547)" d="m0 0h5l-1 2-26 10-6 2 2-4 9-4 9-3z" fill="#414760"/>
<path transform="translate(1495,932)" d="m0 0m-2 1h2v3h-2v2l-8 7-13 13-5 3 2-4z" fill="#3E445D"/>
<path transform="translate(939,1211)" d="m0 0h6l-1 2-19 4-19 6h-2l2-4 9-2 7-2z" fill="#40465F"/>
<path transform="translate(895,411)" d="m0 0h2l10 22v5l-3-2-2-8h-2l-3-8-3-5z" fill="#3F465F"/>
<path transform="translate(1299 1e3)" d="m0 0 7 1 36 12v2l-9-2-32-11z" fill="#404760"/>
<path transform="translate(1547,901)" d="m0 0h5l-3 3-12 5-8 4-3 2-3-1 4-4 17-8z" fill="#40465F"/>
<path transform="translate(819,1214)" d="m0 0 3 1-3 3-6 1-1 2-3-1v2l-16 6h-2v-2z" fill="#404760"/>
<path transform="translate(900,1186)" d="m0 0h7l-2 2-21 5-9 3h-4v-2l25-7z" fill="#404760"/>
<path transform="translate(1047,1691)" d="m0 0 1 3h2l3 6 9 8 5 2v2l-5-1-7-4-5-5-3-5z" fill="#3F465F"/>
<path transform="translate(1243,547)" d="m0 0h6v2l-27 8h-2v-2l9-4 8-2z" fill="#40465F"/>
<path transform="translate(1336,1061)" d="m0 0 5 2 7 9 3 7 1 9-3-1-3-12-6-9-4-3z" fill="#3F455E"/>
<path transform="translate(815,551)" d="m0 0 12 3 3 2 9 3 5 2v2l-10-3-18-6z" fill="#40465F"/>
<path transform="translate(922,469)" d="m0 0h3l14 26h-3l-5-8-8-16z" fill="#424861"/>
<path transform="translate(794,1033)" d="m0 0m-3 1h3l-1 3-18 6h-5l3-3 12-4z" fill="#3E445D"/>
<path transform="translate(1420 1e3)" d="m0 0 2 1-3 3-15 7-11 3-3-1 8-3 15-6z" fill="#40465F"/>
<path transform="translate(409,930)" d="m0 0 11 2 7 4 1 4h2l1 4-6-4-11-7-5-2z" fill="#414760"/>
<path transform="translate(1046,1150)" d="m0 0 4 4 4 6 5 4 4 2v2l-6-2-5-2-5-9z" fill="#3F455E"/>
<path transform="translate(971,924)" d="m0 0 2 1-8 6-11 5-9 3-3-1 10-4 16-8z" fill="#40465F"/>
<path transform="translate(1080,927)" d="m0 0 5 2 13 6 8 3-3 1-12-4-6-1v-2l-5-2z" fill="#3F465F"/>
<path transform="translate(1066,1441)" d="m0 0 3 1-9 5-7 7-5 10-1-4 6-10h2l2-4z" fill="#3F465F"/>
<path transform="translate(735 1e3)" d="m0 0 3 1-2 3-16 4-6 1 1-2z" fill="#40465F"/>
<path transform="translate(1152,1225)" d="m0 0 5 1 11 4 5 3 4 3-6-1-19-8z" fill="#40465F"/>
<path transform="translate(807,1387)" d="m0 0 3 1 6 7 10 6 6 2v2l-6-1-9-5v-2l-4-2-5-4z" fill="#414760"/>
<path transform="translate(1362,1755)" d="m0 0 1 2h-2v2h-2l-1 4h-3l-1 4-8 7-2 1 2-4 11-12z" fill="#404760"/>
<path transform="translate(1692,1339)" d="m0 0 4 5 6 11 2 4-1 4-7-13-5-9z" fill="#414861"/>
<path transform="translate(680,388)" d="m0 0m-1 1m-2 1h2v3l-10 5-7 1 4-4z" fill="#3F455E"/>
<path transform="translate(999,1691)" d="m0 0h2l-2 6-5 9-8 5h-2v-2l8-6 6-9z" fill="#404760"/>
<path transform="translate(837,1691)" d="m0 0 5 5 8 7 10 5v2l-5-1-11-8-7-8z" fill="#40465F"/>
<path transform="translate(851,1201)" d="m0 0h5l-3 2-12 6-4 1-1-3z" fill="#404760"/>
<path transform="translate(955,980)" d="m0 0 4 1-10 4-14 4 1-3 13-4z" fill="#40465F"/>
<path transform="translate(1065,634)" d="m0 0v3l-8 11-5 9-1-3 5-10z" fill="#3F455E"/>
<path transform="translate(1238,979)" d="m0 0 5 1 18 6v1l-10-1-7-3-8-1 2-1z" fill="#3F455E"/>
<path transform="translate(927,296)" d="m0 0 6 4 4 6v2h2l3 5-5-2-9-12z" fill="#414861"/>
<path transform="translate(647,1576)" d="m0 0 4 2 8 8 6 5-3 1-7-7-8-7z" fill="#404760"/>
<path transform="translate(1128,1217)" d="m0 0 8 1 12 4 3 3-7-1-15-5z" fill="#404760"/>
<path transform="translate(711,1060)" d="m0 0h2v2l-7 6-5 10-1 3h-2l1-6 7-11h2v-2z" fill="#404760"/>
<path transform="translate(1209,1691)" d="m0 0h2l-1 4h-2l-2 4-5 5-8 4v-2l11-8z" fill="#40465F"/>
<path transform="translate(1256,1035)" d="m0 0 13 4 4 2v2l-12-3-8-3z" fill="#414760"/>
<path transform="translate(986,910)" d="m0 0 1 3-1 2h-3l-1 4h-3v2l-4 3-3-1 8-7 5-5z" fill="#3E445D"/>
<path transform="translate(662,397)" d="m0 0m-1 1h6l-4 3-11 5h-2l1-3z" fill="#414861"/>
<path transform="translate(708,1141)" d="m0 0 4 4 5 11v2l-3-1v-2h-2l-3-9z" fill="#40465F"/>
<path transform="translate(1049,883)" d="m0 0 2 1 4 12 3 7-3-1-4-8-2-6z" fill="#40465F"/>
<path transform="translate(902,263)" d="m0 0h2l1 4 3 1 7 9-1 3-4-4-8-11z" fill="#414760"/>
<path transform="translate(1333,1420)" d="m0 0 1 3-7 14h-2l1-5 6-11z" fill="#414760"/>
<path transform="translate(1427,596)" d="m0 0 5 2 11 10-3 1-7-6-5-5z" fill="#3F465F"/>
<path transform="translate(1260,1300)" d="m0 0h2l2 3 2 9v5h-2l-3-11z" fill="#414760"/>
<path transform="translate(1411,585)" d="m0 0 5 2 9 7-3 1-11-8z" fill="#40465F"/>
<path transform="translate(872,444)" d="m0 0h2l3 7 2 7-2 1-5-11z" fill="#414760"/>
<path transform="translate(432,945)" d="m0 0 5 5 3 5-1 4-3-3-3-5z" fill="#40465F"/>
<path transform="translate(669,1596)" d="m0 0 4 2 9 9-3 1-10-10z" fill="#40465F"/>
<path transform="translate(988,1209)" d="m0 0 4 2 5 5 3 2 1 6h-2l-6-9-5-4z" fill="#414760"/>
<path transform="translate(637,1009)" d="m0 0 5 1 12 4v2l-12-2v-2l-5-1z" fill="#404760"/>
<path transform="translate(597,980)" d="m0 0 4 2 9 9-4 1-7-9-2-1z" fill="#404760"/>
<path transform="translate(1506,923)" d="m0 0 2 1-5 6-6 4-2-1 5-5z" fill="#40465F"/>
<path transform="translate(994,897)" d="m0 0 1 4-7 8-3 2 2-4 5-9z" fill="#3F455E"/>
<path transform="translate(748,355)" d="m0 0m-2 1h2v3l-6 3-7 1 4-4z" fill="#3F455E"/>
<path transform="translate(401,1229)" d="m0 0h2l-1 8-4 10-1-3 3-12z" fill="#404760"/>
<path transform="translate(1302,1203)" d="m0 0 1 4-8 7-6 5 2-4z" fill="#404760"/>
<path transform="translate(891,951)" d="m0 0h4v2h-2v2l-8 1-2-1 5-3z" fill="#3E445D"/>
<path transform="translate(691,553)" d="m0 0m-3 1h3v3l-9 4h-2l2-4z" fill="#40465F"/>
<path transform="translate(1213,1021)" d="m0 0 7 1 6 3v2l-11-3-2-1z" fill="#3F455E"/>
<path transform="translate(863,1441)" d="m0 0m-3 1h3v2l-10 4-4 2 2-4 5-3z" fill="#40465F"/>
<path transform="translate(1306,1052)" d="m0 0 8 1 6 2v1h-9l-5-2z" fill="#3E445D"/>
<path transform="translate(1105,985)" d="m0 0 8 1v2l5 1v1l-9-1-4-2z" fill="#3F455E"/>
<path transform="translate(1243,547)" d="m0 0h6v2l-11 3h-3v-2z" fill="#414760"/>
<path transform="translate(796,1286)" d="m0 0 1 2-9 14-1-3 6-10z" fill="#3F465F"/>
<path transform="translate(999,1148)" d="m0 0 1 3-2 8h-3l-2 4v-4l4-7z" fill="#3E445D"/>
<path transform="translate(743,1050)" d="m0 0m-5 1h5v2l-5 2h-8l2-2z" fill="#3E445D"/>
<path transform="translate(512,722)" d="m0 0 1 2-5 15-1-3 1-8z" fill="#3D435C"/>
<path transform="translate(1447,612)" d="m0 0 4 2 4 4 4 6-4-2-7-6z" fill="#424861"/>
<path transform="translate(931,484)" d="m0 0 3 1 5 11-3-1-5-8z" fill="#414760"/>
<path transform="translate(1118,989)" d="m0 0 5 1 7 3v2l-11-3-4-2z" fill="#414760"/>
<path transform="translate(1562,709)" d="m0 0 2 3 1 6h2l1 4-3-1v-2h-2l-2-9z" fill="#3D435C"/>
<path transform="translate(687,1571)" d="m0 0 4 1 10 9-1 2-11-10z" fill="#414861"/>
<path transform="translate(1347,1075)" d="m0 0h2l2 4 1 9-3-1z" fill="#404760"/>
<path transform="translate(722,543)" d="m0 0h6l-1 2-8 2h-5l1-2z" fill="#414760"/>
<path transform="translate(735,361)" d="m0 0m-1 1h6l-4 3-4 2h-5l3-3z" fill="#414861"/>
<path transform="translate(1335,1637)" d="m0 0 1 2-7 10-3-1z" fill="#3F465F"/>
<path transform="translate(672,1558)" d="m0 0 4 1 8 7v2l-4-2-8-7z" fill="#404760"/>
<path transform="translate(848,1448)" d="m0 0 1 3-7 6-2 2-1-3h2v-2h2v-2z" fill="#3E445D"/>
<path transform="translate(1049,1392)" d="m0 0h2l4 6 4 3-1 2-8-6z" fill="#414760"/>
<path transform="translate(794,1365)" d="m0 0h2l5 10h-3l-2-2-2-5z" fill="#404760"/>
<path transform="translate(1123,290)" d="m0 0 1 4-5 6h-2l1-4z" fill="#404760"/>
</svg>
